<?xml version="1.0" encoding="utf-8"?>
<!-- Generator: Adobe Illustrator 24.1.1, SVG Export Plug-In . SVG Version: 6.00 Build 0)  -->
<svg version="1.1" id="Layer_1" xmlns="http://www.w3.org/2000/svg" xmlns:xlink="http://www.w3.org/1999/xlink" x="0px" y="0px"
	 viewBox="0 0 637 344" style="enable-background:new 0 0 637 344;" xml:space="preserve">
<style type="text/css">
	.st0{fill:#EBEBEB;}
	.st1{fill:#F5F5F5;}
	.st2{fill:#E0E0E0;}
	.st3{fill:#FAFAFA;}
	.st4{fill:#263238;}
	.st5{fill:#455A64;}
	.st6{fill:#FFFFFF;}
	.st7{fill:#FF725E;}
	.st8{opacity:0.3;enable-background:new    ;}
	.st9{opacity:0.3;}
	.st10{opacity:0.2;enable-background:new    ;}
	.st11{opacity:0.4;}
	.st12{fill:#FFBE9D;}
	.st13{fill:#EB996E;}
	.st14{opacity:0.4;enable-background:new    ;}
	.st15{opacity:0.6;}
	.st16{opacity:0.5;enable-background:new    ;}
</style>
<g id="background-complete--inject-69">
	<path class="st0" d="M63,334.4c0,3-10.6,5.4-23.7,5.4s-23.6-2.4-23.6-5.4s10.6-5.4,23.6-5.4S63,331.4,63,334.4z"/>
	<path class="st0" d="M39.3,340.4c-11.7,0-24.1-2.1-24.1-5.9s12.4-5.9,24.1-5.9s24.2,2.1,24.2,5.9S51,340.4,39.3,340.4z M39.3,329.5
		c-13.6,0-23.1,2.6-23.1,4.9s9.5,4.9,23.1,4.9s23.2-2.6,23.2-4.9S53,329.5,39.3,329.5L39.3,329.5z"/>
	<rect x="93.8" y="60.5" class="st0" width="84.8" height="259.6"/>
	<rect x="178.3" y="60.5" class="st1" width="67" height="258.8"/>
	<rect x="98.4" y="102.1" class="st2" width="71.9" height="20.2"/>
	<rect x="100.4" y="104.6" class="st1" width="4" height="15.5"/>
	<circle class="st3" cx="107.9" cy="107.9" r="1.3"/>
	<circle class="st3" cx="107.9" cy="113.3" r="1.3"/>
	<rect x="114.3" y="106.6" class="st1" width="4" height="11.9"/>
	<rect x="120" y="106.6" class="st1" width="4" height="11.9"/>
	<rect x="125.7" y="106.6" class="st1" width="4" height="11.9"/>
	<rect x="131.4" y="106.6" class="st1" width="4" height="11.9"/>
	<rect x="137.1" y="106.6" class="st1" width="4" height="11.9"/>
	<rect x="142.9" y="106.6" class="st1" width="4" height="11.9"/>
	<rect x="148.6" y="106.6" class="st1" width="4" height="11.9"/>
	<rect x="154.3" y="106.6" class="st1" width="4" height="11.9"/>
	<rect x="160" y="106.6" class="st1" width="4" height="11.9"/>
	<rect x="165.7" y="106.6" class="st1" width="4" height="11.9"/>
	<rect x="98.4" y="134.5" class="st2" width="71.9" height="20.2"/>
	<rect x="100.4" y="137" class="st1" width="4" height="15.5"/>
	<circle class="st3" cx="107.9" cy="140.3" r="1.3"/>
	<circle class="st3" cx="107.9" cy="145.8" r="1.3"/>
	<rect x="114.3" y="139" class="st1" width="4" height="11.9"/>
	<rect x="120" y="139" class="st1" width="4" height="11.9"/>
	<rect x="125.7" y="139" class="st1" width="4" height="11.9"/>
	<rect x="131.4" y="139" class="st1" width="4" height="11.9"/>
	<rect x="137.1" y="139" class="st1" width="4" height="11.9"/>
	<rect x="142.9" y="139" class="st1" width="4" height="11.9"/>
	<rect x="148.6" y="139" class="st1" width="4" height="11.9"/>
	<rect x="154.3" y="139" class="st1" width="4" height="11.9"/>
	<rect x="160" y="139" class="st1" width="4" height="11.9"/>
	<rect x="165.7" y="139" class="st1" width="4" height="11.9"/>
	<rect x="98.4" y="166.9" class="st2" width="71.9" height="20.2"/>
	<rect x="100.4" y="169.4" class="st1" width="4" height="15.5"/>
	<circle class="st3" cx="107.9" cy="172.7" r="1.3"/>
	<path class="st3" d="M109.2,178.2c0,0.7-0.6,1.3-1.3,1.3s-1.3-0.6-1.3-1.3c0-0.7,0.6-1.3,1.3-1.3l0,0
		C108.6,176.9,109.2,177.5,109.2,178.2z"/>
	<rect x="114.3" y="171.4" class="st1" width="4" height="11.9"/>
	<rect x="120" y="171.4" class="st1" width="4" height="11.9"/>
	<rect x="125.7" y="171.4" class="st1" width="4" height="11.9"/>
	<rect x="131.4" y="171.4" class="st1" width="4" height="11.9"/>
	<rect x="137.1" y="171.4" class="st1" width="4" height="11.9"/>
	<rect x="142.9" y="171.4" class="st1" width="4" height="11.9"/>
	<rect x="148.6" y="171.4" class="st1" width="4" height="11.9"/>
	<rect x="154.3" y="171.4" class="st1" width="4" height="11.9"/>
	<rect x="160" y="171.4" class="st1" width="4" height="11.9"/>
	<rect x="165.7" y="171.4" class="st1" width="4" height="11.9"/>
	<rect x="98.4" y="199.3" class="st2" width="71.9" height="20.2"/>
	<rect x="100.4" y="201.9" class="st1" width="4" height="15.5"/>
	<circle class="st3" cx="107.9" cy="205.1" r="1.3"/>
	<path class="st3" d="M109.2,210.6c0,0.7-0.6,1.3-1.3,1.3c-0.7,0-1.3-0.6-1.3-1.3c0,0,0,0,0,0c0-0.7,0.6-1.3,1.3-1.3
		C108.6,209.3,109.2,209.9,109.2,210.6C109.2,210.6,109.2,210.6,109.2,210.6z"/>
	<rect x="114.3" y="203.8" class="st1" width="4" height="11.9"/>
	<rect x="120" y="203.8" class="st1" width="4" height="11.9"/>
	<rect x="125.7" y="203.8" class="st1" width="4" height="11.9"/>
	<rect x="131.4" y="203.8" class="st1" width="4" height="11.9"/>
	<rect x="137.1" y="203.8" class="st1" width="4" height="11.9"/>
	<rect x="142.9" y="203.8" class="st1" width="4" height="11.9"/>
	<rect x="148.6" y="203.8" class="st1" width="4" height="11.9"/>
	<rect x="154.3" y="203.8" class="st1" width="4" height="11.9"/>
	<rect x="160" y="203.8" class="st1" width="4" height="11.9"/>
	<rect x="165.7" y="203.8" class="st1" width="4" height="11.9"/>
	<rect x="98.4" y="231.7" class="st2" width="71.9" height="20.2"/>
	<rect x="100.4" y="234.3" class="st1" width="4" height="15.5"/>
	<circle class="st3" cx="107.9" cy="237.6" r="1.3"/>
	<path class="st3" d="M109.2,243c0,0.7-0.6,1.3-1.3,1.3s-1.3-0.6-1.3-1.3c0-0.7,0.6-1.3,1.3-1.3l0,0
		C108.6,241.7,109.2,242.3,109.2,243z"/>
	<rect x="114.3" y="236.3" class="st1" width="4" height="11.9"/>
	<rect x="120" y="236.3" class="st1" width="4" height="11.9"/>
	<rect x="125.7" y="236.3" class="st1" width="4" height="11.9"/>
	<rect x="131.4" y="236.3" class="st1" width="4" height="11.9"/>
	<rect x="137.1" y="236.3" class="st1" width="4" height="11.9"/>
	<rect x="142.9" y="236.3" class="st1" width="4" height="11.9"/>
	<rect x="148.6" y="236.3" class="st1" width="4" height="11.9"/>
	<rect x="154.3" y="236.3" class="st1" width="4" height="11.9"/>
	<rect x="160" y="236.3" class="st1" width="4" height="11.9"/>
	<rect x="165.7" y="236.3" class="st1" width="4" height="11.9"/>
	<rect x="98.4" y="264.2" class="st2" width="71.9" height="20.2"/>
	<rect x="100.4" y="266.7" class="st1" width="4" height="15.5"/>
	<circle class="st3" cx="107.9" cy="270" r="1.3"/>
	<path class="st3" d="M109.2,275.4c0,0.7-0.6,1.3-1.3,1.3s-1.3-0.6-1.3-1.3c0-0.7,0.6-1.3,1.3-1.3l0,0
		C108.6,274.1,109.2,274.7,109.2,275.4z"/>
	<rect x="114.3" y="268.7" class="st1" width="4" height="11.9"/>
	<rect x="120" y="268.7" class="st1" width="4" height="11.9"/>
	<rect x="125.7" y="268.7" class="st1" width="4" height="11.9"/>
	<rect x="131.4" y="268.7" class="st1" width="4" height="11.9"/>
	<rect x="137.1" y="268.7" class="st1" width="4" height="11.9"/>
	<rect x="142.9" y="268.7" class="st1" width="4" height="11.9"/>
	<rect x="148.6" y="268.7" class="st1" width="4" height="11.9"/>
	<rect x="154.3" y="268.7" class="st1" width="4" height="11.9"/>
	<rect x="160" y="268.7" class="st1" width="4" height="11.9"/>
	<rect x="165.7" y="268.7" class="st1" width="4" height="11.9"/>
	<rect x="98.4" y="296.6" class="st2" width="71.9" height="20.2"/>
	<rect x="100.4" y="299.1" class="st1" width="4" height="15.5"/>
	<circle class="st3" cx="107.9" cy="302.4" r="1.3"/>
	<path class="st3" d="M109.2,307.9c0,0.7-0.6,1.3-1.3,1.3c-0.7,0-1.3-0.6-1.3-1.3c0-0.7,0.6-1.3,1.3-1.3
		C108.6,306.6,109.2,307.2,109.2,307.9z"/>
	<rect x="114.3" y="301.1" class="st1" width="4" height="11.9"/>
	<rect x="120" y="301.1" class="st1" width="4" height="11.9"/>
	<rect x="125.7" y="301.1" class="st1" width="4" height="11.9"/>
	<rect x="131.4" y="301.1" class="st1" width="4" height="11.9"/>
	<rect x="137.1" y="301.1" class="st1" width="4" height="11.9"/>
	<rect x="142.9" y="301.1" class="st1" width="4" height="11.9"/>
	<rect x="148.6" y="301.1" class="st1" width="4" height="11.9"/>
	<rect x="154.3" y="301.1" class="st1" width="4" height="11.9"/>
	<rect x="160" y="301.1" class="st1" width="4" height="11.9"/>
	<rect x="165.7" y="301.1" class="st1" width="4" height="11.9"/>
	<path class="st2" d="M142.9,102.1c-0.1-0.2-0.1-0.4-0.1-0.6c0-0.4-0.1-1-0.1-1.8s0-1.7-0.1-2.8c0-1.2-0.2-2.5-0.5-3.7
		c-0.4-1.4-1.1-2.8-1.9-4c-1-1.4-2.3-2.5-3.9-3.2c-1.8-0.7-3.7-1-5.6-1.1l-6.2-0.5c-8.5-0.7-16.2-1.2-21.8-1.3c-2.8-0.1-5,0-6.6,0
		h-1.8c-0.2,0-0.4,0-0.6,0c0.2-0.1,0.4-0.1,0.6-0.1l1.8-0.1c1.6-0.1,3.8-0.1,6.6-0.1c5.6,0,13.3,0.4,21.8,1.2l6.2,0.6
		c2,0.1,3.9,0.5,5.7,1.2c1.7,0.7,3.1,1.9,4.1,3.4c0.9,1.3,1.5,2.7,1.9,4.2c0.3,1.2,0.4,2.5,0.4,3.8c0,1.1,0,2.1,0,2.9s0,1.3,0,1.8
		C142.9,101.7,142.9,101.9,142.9,102.1z"/>
	<path class="st2" d="M121.1,102.1c0-0.2-0.1-0.4-0.1-0.6c0-0.4,0-1,0-1.7s0-1.6-0.1-2.7c-0.1-1.2-0.4-2.3-0.9-3.3
		c-0.8-1.2-1.9-2-3.2-2.5c-1.5-0.6-3.1-0.8-4.7-0.5c-0.9,0.1-1.7,0.4-2.4,0.8c-0.8,0.4-1.4,1-1.9,1.8c-0.4,0.8-0.4,1.7,0,2.5
		c0.5,0.8,1.2,1.4,2.1,1.6c0.9,0.2,1.8-0.1,2.5-0.7c1.3-1.3,1.5-3.4,0.4-4.8c-0.5-0.7-1.1-1.3-1.9-1.7c-0.7-0.3-1.5-0.6-2.4-0.6
		c-0.8-0.1-1.6-0.2-2.4-0.3c-1.5-0.2-3-0.3-4.3-0.3C99.2,89,97.1,89,95.6,89H94c-0.2,0-0.4,0-0.6,0c0.2,0,0.4-0.1,0.6-0.1l1.7-0.1
		c1.5-0.1,3.6-0.1,6.2-0.1c1.3,0,2.8,0.1,4.3,0.3c0.8,0.1,1.6,0.2,2.4,0.3c0.4,0.1,0.8,0.1,1.3,0.2c0.4,0.1,0.9,0.2,1.3,0.4
		c0.8,0.4,1.5,1,2.1,1.8c1.3,1.7,1.1,4-0.4,5.5c-0.8,0.8-1.9,1.1-3,0.9c-1-0.2-1.9-0.9-2.5-1.9c-0.5-0.9-0.5-2.1,0-3
		c0.5-0.9,1.2-1.5,2.1-2c0.8-0.4,1.7-0.7,2.6-0.9c1.7-0.3,3.4-0.1,5,0.6c1.4,0.5,2.6,1.4,3.4,2.7c0.5,1.1,0.8,2.3,0.9,3.5
		c0,0.9,0,1.8,0,2.7c0,0.7-0.1,1.2-0.1,1.7C121.1,101.7,121.1,101.9,121.1,102.1z"/>
	<path class="st2" d="M148.7,102.1c-0.1-0.2-0.1-0.4-0.1-0.6c-0.1-0.4-0.2-1.1-0.4-1.9c-0.5-2.3-1.2-4.6-2.1-6.9
		c-1.3-3.3-3.5-6.2-6.3-8.4c-1.7-1.2-3.7-2-5.7-2.2c-2.2-0.2-4.5-0.4-6.7-0.4c-9.3-0.2-17.7-0.1-23.8-0.4c-3-0.1-5.5-0.3-7.2-0.4
		l-2-0.2c-0.2,0-0.5,0-0.7-0.1c0.2,0,0.5,0,0.7,0l2,0.1c1.7,0.1,4.2,0.1,7.2,0.2c6.1,0.1,14.5,0.1,23.8,0.2c2.3,0,4.5,0.1,6.8,0.4
		c2.1,0.2,4.2,1,5.9,2.3c1.6,1.2,2.9,2.6,4,4.2c0.9,1.4,1.7,2.9,2.3,4.4c0.9,2.3,1.6,4.6,2,7c0.1,0.8,0.2,1.5,0.3,1.9
		C148.8,101.7,148.7,101.9,148.7,102.1z"/>
	<rect x="99.4" y="63.7" class="st2" width="69.9" height="10.1"/>
	<rect x="114.8" y="68.8" class="st1" width="38.1" height="5.1"/>
	<rect x="359.6" y="60.5" class="st0" width="84.8" height="259.6"/>
	<rect x="444.1" y="60.5" class="st1" width="67" height="258.8"/>
	<rect x="364.1" y="102.1" class="st2" width="71.9" height="20.2"/>
	<rect x="366.1" y="104.6" class="st1" width="4" height="15.5"/>
	<circle class="st3" cx="373.6" cy="107.9" r="1.3"/>
	<circle class="st3" cx="373.6" cy="113.3" r="1.3"/>
	<rect x="380" y="106.6" class="st1" width="4" height="11.9"/>
	<rect x="385.7" y="106.6" class="st1" width="4" height="11.9"/>
	<rect x="391.4" y="106.6" class="st1" width="4" height="11.9"/>
	<rect x="397.2" y="106.6" class="st1" width="4" height="11.9"/>
	<rect x="402.9" y="106.6" class="st1" width="4" height="11.9"/>
	<rect x="408.6" y="106.6" class="st1" width="4" height="11.9"/>
	<rect x="414.3" y="106.6" class="st1" width="4" height="11.9"/>
	<rect x="420" y="106.6" class="st1" width="4" height="11.9"/>
	<rect x="425.7" y="106.6" class="st1" width="4" height="11.9"/>
	<rect x="431.5" y="106.6" class="st1" width="4" height="11.9"/>
	<rect x="364.1" y="134.5" class="st2" width="71.9" height="20.2"/>
	<rect x="366.1" y="137" class="st1" width="4" height="15.5"/>
	<circle class="st3" cx="373.6" cy="140.3" r="1.3"/>
	<circle class="st3" cx="373.6" cy="145.8" r="1.3"/>
	<rect x="380" y="139" class="st1" width="4" height="11.9"/>
	<rect x="385.7" y="139" class="st1" width="4" height="11.9"/>
	<rect x="391.4" y="139" class="st1" width="4" height="11.9"/>
	<rect x="397.2" y="139" class="st1" width="4" height="11.9"/>
	<rect x="402.9" y="139" class="st1" width="4" height="11.9"/>
	<rect x="408.6" y="139" class="st1" width="4" height="11.9"/>
	<rect x="414.3" y="139" class="st1" width="4" height="11.9"/>
	<rect x="420" y="139" class="st1" width="4" height="11.9"/>
	<rect x="425.7" y="139" class="st1" width="4" height="11.9"/>
	<rect x="431.5" y="139" class="st1" width="4" height="11.9"/>
	<rect x="364.1" y="166.9" class="st2" width="71.9" height="20.2"/>
	<rect x="366.1" y="169.4" class="st1" width="4" height="15.5"/>
	<circle class="st3" cx="373.6" cy="172.7" r="1.3"/>
	<path class="st3" d="M374.9,178.2c0,0.7-0.6,1.3-1.3,1.3s-1.3-0.6-1.3-1.3c0-0.7,0.6-1.3,1.3-1.3l0,0
		C374.3,176.9,374.9,177.5,374.9,178.2z"/>
	<rect x="380" y="171.4" class="st1" width="4" height="11.9"/>
	<rect x="385.7" y="171.4" class="st1" width="4" height="11.9"/>
	<rect x="391.4" y="171.4" class="st1" width="4" height="11.9"/>
	<rect x="397.2" y="171.4" class="st1" width="4" height="11.9"/>
	<rect x="402.9" y="171.4" class="st1" width="4" height="11.9"/>
	<rect x="408.6" y="171.4" class="st1" width="4" height="11.9"/>
	<rect x="414.3" y="171.4" class="st1" width="4" height="11.9"/>
	<rect x="420" y="171.4" class="st1" width="4" height="11.9"/>
	<rect x="425.7" y="171.4" class="st1" width="4" height="11.9"/>
	<rect x="431.5" y="171.4" class="st1" width="4" height="11.9"/>
	<rect x="364.1" y="199.3" class="st2" width="71.9" height="20.2"/>
	<rect x="366.1" y="201.9" class="st1" width="4" height="15.5"/>
	<circle class="st3" cx="373.6" cy="205.1" r="1.3"/>
	<path class="st3" d="M374.9,210.6c0,0.7-0.6,1.3-1.3,1.3c-0.7,0-1.3-0.6-1.3-1.3c0-0.7,0.6-1.3,1.3-1.3
		C374.3,209.3,374.9,209.9,374.9,210.6z"/>
	<rect x="380" y="203.8" class="st1" width="4" height="11.9"/>
	<rect x="385.7" y="203.8" class="st1" width="4" height="11.9"/>
	<rect x="391.4" y="203.8" class="st1" width="4" height="11.9"/>
	<rect x="397.2" y="203.8" class="st1" width="4" height="11.9"/>
	<rect x="402.9" y="203.8" class="st1" width="4" height="11.9"/>
	<rect x="408.6" y="203.8" class="st1" width="4" height="11.9"/>
	<rect x="414.3" y="203.8" class="st1" width="4" height="11.9"/>
	<rect x="420" y="203.8" class="st1" width="4" height="11.9"/>
	<rect x="425.7" y="203.8" class="st1" width="4" height="11.9"/>
	<rect x="431.5" y="203.8" class="st1" width="4" height="11.9"/>
	<rect x="364.1" y="231.7" class="st2" width="71.9" height="20.2"/>
	<rect x="366.1" y="234.3" class="st1" width="4" height="15.5"/>
	<circle class="st3" cx="373.6" cy="237.6" r="1.3"/>
	<path class="st3" d="M374.9,243c0,0.7-0.6,1.3-1.3,1.3s-1.3-0.6-1.3-1.3c0-0.7,0.6-1.3,1.3-1.3l0,0
		C374.3,241.7,374.9,242.3,374.9,243z"/>
	<rect x="380" y="236.3" class="st1" width="4" height="11.9"/>
	<rect x="385.7" y="236.3" class="st1" width="4" height="11.9"/>
	<rect x="391.4" y="236.3" class="st1" width="4" height="11.9"/>
	<rect x="397.2" y="236.3" class="st1" width="4" height="11.9"/>
	<rect x="402.9" y="236.3" class="st1" width="4" height="11.9"/>
	<rect x="408.6" y="236.3" class="st1" width="4" height="11.9"/>
	<rect x="414.3" y="236.3" class="st1" width="4" height="11.9"/>
	<rect x="420" y="236.3" class="st1" width="4" height="11.9"/>
	<rect x="425.7" y="236.3" class="st1" width="4" height="11.9"/>
	<rect x="431.5" y="236.3" class="st1" width="4" height="11.9"/>
	<rect x="364.1" y="264.2" class="st2" width="71.9" height="20.2"/>
	<rect x="366.1" y="266.7" class="st1" width="4" height="15.5"/>
	<circle class="st3" cx="373.6" cy="270" r="1.3"/>
	<path class="st3" d="M374.9,275.4c0,0.7-0.6,1.3-1.3,1.3s-1.3-0.6-1.3-1.3c0-0.7,0.6-1.3,1.3-1.3l0,0
		C374.3,274.1,374.9,274.7,374.9,275.4z"/>
	<rect x="380" y="268.7" class="st1" width="4" height="11.9"/>
	<rect x="385.7" y="268.7" class="st1" width="4" height="11.9"/>
	<rect x="391.4" y="268.7" class="st1" width="4" height="11.9"/>
	<rect x="397.2" y="268.7" class="st1" width="4" height="11.9"/>
	<rect x="402.9" y="268.7" class="st1" width="4" height="11.9"/>
	<rect x="408.6" y="268.7" class="st1" width="4" height="11.9"/>
	<rect x="414.3" y="268.7" class="st1" width="4" height="11.9"/>
	<rect x="420" y="268.7" class="st1" width="4" height="11.9"/>
	<rect x="425.7" y="268.7" class="st1" width="4" height="11.9"/>
	<rect x="431.5" y="268.7" class="st1" width="4" height="11.9"/>
	<rect x="364.1" y="296.6" class="st2" width="71.9" height="20.2"/>
	<rect x="366.1" y="299.1" class="st1" width="4" height="15.5"/>
	<circle class="st3" cx="373.6" cy="302.4" r="1.3"/>
	<path class="st3" d="M374.9,307.9c0,0.7-0.6,1.3-1.3,1.3c-0.7,0-1.3-0.6-1.3-1.3c0-0.7,0.6-1.3,1.3-1.3
		C374.3,306.6,374.9,307.2,374.9,307.9z"/>
	<rect x="380" y="301.1" class="st1" width="4" height="11.9"/>
	<rect x="385.7" y="301.1" class="st1" width="4" height="11.9"/>
	<rect x="391.4" y="301.1" class="st1" width="4" height="11.9"/>
	<rect x="397.2" y="301.1" class="st1" width="4" height="11.9"/>
	<rect x="402.9" y="301.1" class="st1" width="4" height="11.9"/>
	<rect x="408.6" y="301.1" class="st1" width="4" height="11.9"/>
	<rect x="414.3" y="301.1" class="st1" width="4" height="11.9"/>
	<rect x="420" y="301.1" class="st1" width="4" height="11.9"/>
	<rect x="425.7" y="301.1" class="st1" width="4" height="11.9"/>
	<rect x="431.5" y="301.1" class="st1" width="4" height="11.9"/>
	<path class="st2" d="M408.6,102.1c-0.1-0.2-0.1-0.4-0.1-0.6c0-0.4-0.1-1-0.1-1.8s0-1.7-0.1-2.8c0-1.2-0.2-2.5-0.5-3.7
		c-0.4-1.4-1.1-2.8-1.9-4c-1-1.4-2.3-2.5-3.9-3.2c-1.8-0.7-3.7-1-5.6-1.1l-6.2-0.5c-8.5-0.7-16.2-1.2-21.8-1.3c-2.8-0.1-5,0-6.6,0
		h-1.8c-0.2,0-0.4,0-0.6,0c0.2-0.1,0.4-0.1,0.6-0.1l1.8-0.1c1.6-0.1,3.8-0.1,6.6-0.1c5.6,0,13.3,0.4,21.8,1.2l6.2,0.6
		c2,0.1,3.9,0.5,5.7,1.2c1.7,0.7,3.1,1.9,4.1,3.4c0.9,1.3,1.5,2.7,1.9,4.2c0.3,1.2,0.4,2.5,0.4,3.8c0,1.1,0,2.1,0,2.9s0,1.3,0,1.8
		C408.6,101.7,408.6,101.9,408.6,102.1z"/>
	<path class="st2" d="M386.8,102.1c0-0.2,0-0.4,0-0.6c0-0.4,0-1,0-1.7s0-1.6-0.1-2.7c-0.1-1.2-0.4-2.3-0.9-3.3
		c-0.8-1.2-1.9-2-3.2-2.5c-1.5-0.6-3.1-0.8-4.7-0.5c-0.8,0.1-1.7,0.4-2.4,0.8c-0.8,0.4-1.4,1-1.9,1.8c-0.4,0.8-0.4,1.7,0,2.5
		c0.5,0.8,1.2,1.4,2.1,1.6c0.9,0.2,1.8-0.1,2.5-0.7c1.3-1.3,1.5-3.4,0.4-4.8c-0.5-0.7-1.1-1.3-1.9-1.7c-0.7-0.3-1.5-0.6-2.4-0.6
		c-0.8-0.1-1.6-0.2-2.4-0.3c-1.5-0.2-3-0.3-4.3-0.3c-2.6-0.1-4.7-0.1-6.2-0.1h-1.7c-0.2,0-0.4,0-0.6,0c0.2,0,0.4-0.1,0.6-0.1
		l1.7-0.1c1.5-0.1,3.6-0.1,6.2-0.1c1.3,0,2.8,0.1,4.3,0.3c0.8,0.1,1.6,0.2,2.4,0.3c0.4,0.1,0.8,0.1,1.3,0.2c0.4,0.1,0.9,0.2,1.3,0.4
		c0.8,0.4,1.5,1,2.1,1.8c0.6,0.8,0.9,1.8,0.9,2.8c-0.1,1-0.5,2-1.3,2.7c-0.8,0.8-1.9,1.1-3,0.9c-1-0.3-1.9-0.9-2.5-1.9
		c-0.5-0.9-0.5-2.1,0-3c0.5-0.9,1.2-1.5,2.1-2c0.8-0.4,1.7-0.7,2.6-0.9c1.7-0.3,3.4-0.1,5,0.6c1.4,0.5,2.6,1.4,3.4,2.7
		c0.5,1.1,0.8,2.3,0.9,3.5c0,0.9,0,1.8,0,2.7c0,0.7,0,1.2-0.1,1.7C386.9,101.7,386.8,101.9,386.8,102.1z"/>
	<path class="st2" d="M414.5,102.1c-0.1-0.2-0.1-0.4-0.2-0.7c-0.1-0.4-0.2-1.1-0.4-1.9c-0.5-2.3-1.2-4.6-2.1-6.9
		c-1.3-3.3-3.4-6.2-6.2-8.4c-1.7-1.2-3.7-2-5.7-2.2c-2.2-0.2-4.5-0.4-6.7-0.4c-9.3-0.2-17.7-0.1-23.8-0.4c-3-0.1-5.5-0.3-7.2-0.4
		l-2-0.2c-0.2,0-0.5,0-0.7-0.1c0.2,0,0.5,0,0.7,0l2,0.1c1.7,0.1,4.2,0.1,7.2,0.2c6.1,0.1,14.5,0.1,23.8,0.2c2.3,0,4.5,0.1,6.8,0.4
		c2.1,0.2,4.2,1,5.9,2.3c1.6,1.2,2.9,2.6,4,4.2c0.9,1.4,1.7,2.9,2.3,4.4c0.9,2.3,1.6,4.6,2,7c0.1,0.8,0.2,1.5,0.3,1.9
		C414.5,101.6,414.5,101.8,414.5,102.1z"/>
	<rect x="365.1" y="63.7" class="st2" width="69.9" height="10.1"/>
	<rect x="380.5" y="68.8" class="st1" width="38.1" height="5.1"/>
</g>
<g id="Floor--inject-69">
	<path class="st4" d="M632.9,319.8c0,0.1-141.4,0.3-315.9,0.3S1.1,320,1.1,319.8s141.4-0.3,315.9-0.3S632.9,319.7,632.9,319.8z"/>
</g>
<g id="Server--inject-69">
	<rect x="188.7" y="23.6" class="st0" width="96.6" height="296"/>
	<rect x="285.2" y="23.6" class="st2" width="76.4" height="295"/>
	<rect x="194" y="171" class="st4" width="81.9" height="23.1"/>
	<rect x="194" y="71" class="st4" width="81.9" height="23.1"/>
	<rect x="196.3" y="73.9" class="st5" width="4.6" height="17.7"/>
	<path class="st6" d="M206.3,77.6c0,0.8-0.7,1.5-1.5,1.5c-0.8,0-1.5-0.7-1.5-1.5c0-0.8,0.7-1.5,1.5-1.5l0,0
		C205.7,76.2,206.3,76.8,206.3,77.6z"/>
	<path class="st6" d="M206.3,83.9c0,0.8-0.7,1.5-1.5,1.5c-0.8,0-1.5-0.7-1.5-1.5c0-0.8,0.7-1.5,1.5-1.5l0,0
		C205.7,82.4,206.3,83.1,206.3,83.9z"/>
	<rect x="212.2" y="76.2" class="st5" width="4.5" height="13.6"/>
	<rect x="218.7" y="76.2" class="st5" width="4.5" height="13.6"/>
	<rect x="225.2" y="76.2" class="st5" width="4.5" height="13.6"/>
	<rect x="231.7" y="76.2" class="st5" width="4.5" height="13.6"/>
	<rect x="238.2" y="76.2" class="st5" width="4.5" height="13.6"/>
	<rect x="244.7" y="76.2" class="st5" width="4.5" height="13.6"/>
	<rect x="251.2" y="76.2" class="st5" width="4.5" height="13.6"/>
	<rect x="257.8" y="76.2" class="st5" width="4.5" height="13.6"/>
	<rect x="264.3" y="76.2" class="st5" width="4.5" height="13.6"/>
	<rect x="270.8" y="76.2" class="st5" width="4.5" height="13.6"/>
	<rect x="194" y="104.2" class="st4" width="81.9" height="23.1"/>
	<rect x="196.3" y="107.1" class="st5" width="4.6" height="17.7"/>
	<path class="st6" d="M206.3,110.8c0,0.8-0.6,1.5-1.4,1.5c-0.8,0-1.5-0.6-1.5-1.4s0.6-1.5,1.4-1.5c0,0,0,0,0,0
		C205.7,109.3,206.3,110,206.3,110.8z"/>
	<path class="st6" d="M206.3,117c0,0.8-0.7,1.5-1.5,1.5c-0.8,0-1.5-0.7-1.5-1.5c0-0.8,0.7-1.5,1.5-1.5l0,0
		C205.7,115.5,206.3,116.2,206.3,117z"/>
	<rect x="212.2" y="109.3" class="st5" width="4.5" height="13.6"/>
	<rect x="218.7" y="109.3" class="st5" width="4.5" height="13.6"/>
	<rect x="225.2" y="109.3" class="st5" width="4.5" height="13.6"/>
	<rect x="231.7" y="109.3" class="st5" width="4.5" height="13.6"/>
	<rect x="238.2" y="109.3" class="st5" width="4.5" height="13.6"/>
	<rect x="244.7" y="109.3" class="st5" width="4.5" height="13.6"/>
	<rect x="251.2" y="109.3" class="st5" width="4.5" height="13.6"/>
	<rect x="257.8" y="109.3" class="st5" width="4.5" height="13.6"/>
	<rect x="264.3" y="109.3" class="st5" width="4.5" height="13.6"/>
	<rect x="270.8" y="109.3" class="st5" width="4.5" height="13.6"/>
	<rect x="194" y="137.6" class="st4" width="81.9" height="23.1"/>
	<rect x="196.3" y="140.5" class="st5" width="4.6" height="17.7"/>
	<path class="st6" d="M206.3,144.2c0,0.8-0.6,1.5-1.4,1.5c-0.8,0-1.5-0.6-1.5-1.4s0.6-1.5,1.4-1.5c0,0,0,0,0,0
		C205.7,142.7,206.3,143.4,206.3,144.2z"/>
	<path class="st6" d="M206.3,150.4c0,0.8-0.6,1.5-1.4,1.5c-0.8,0-1.5-0.6-1.5-1.4s0.6-1.5,1.4-1.5c0,0,0,0,0,0
		C205.7,149,206.3,149.6,206.3,150.4z"/>
	<rect x="212.2" y="142.7" class="st5" width="4.5" height="13.6"/>
	<rect x="218.7" y="142.7" class="st5" width="4.5" height="13.6"/>
	<rect x="225.2" y="142.7" class="st5" width="4.5" height="13.6"/>
	<rect x="231.7" y="142.7" class="st5" width="4.5" height="13.6"/>
	<rect x="238.2" y="142.7" class="st5" width="4.5" height="13.6"/>
	<rect x="244.7" y="142.7" class="st5" width="4.5" height="13.6"/>
	<rect x="251.2" y="142.7" class="st5" width="4.5" height="13.6"/>
	<rect x="257.8" y="142.7" class="st5" width="4.5" height="13.6"/>
	<rect x="264.3" y="142.7" class="st5" width="4.5" height="13.6"/>
	<rect x="270.8" y="142.7" class="st5" width="4.5" height="13.6"/>
	<rect x="194" y="210.1" class="st4" width="81.9" height="23.1"/>
	<rect x="196.3" y="213" class="st5" width="4.6" height="17.7"/>
	<path class="st6" d="M206.3,216.7c0,0.8-0.7,1.5-1.5,1.5c-0.8,0-1.5-0.7-1.5-1.5c0-0.8,0.7-1.5,1.5-1.5c0,0,0,0,0,0
		C205.7,215.3,206.3,215.9,206.3,216.7C206.3,216.7,206.3,216.7,206.3,216.7z"/>
	<path class="st6" d="M206.3,223c0,0.8-0.7,1.5-1.5,1.5c-0.8,0-1.5-0.7-1.5-1.5c0-0.8,0.7-1.5,1.5-1.5c0,0,0,0,0,0
		C205.7,221.5,206.3,222.1,206.3,223C206.3,223,206.3,223,206.3,223z"/>
	<rect x="212.2" y="215.3" class="st5" width="4.5" height="13.6"/>
	<rect x="218.7" y="215.3" class="st5" width="4.5" height="13.6"/>
	<rect x="225.2" y="215.3" class="st5" width="4.5" height="13.6"/>
	<rect x="231.7" y="215.3" class="st5" width="4.5" height="13.6"/>
	<rect x="238.2" y="215.3" class="st5" width="4.5" height="13.6"/>
	<rect x="244.7" y="215.3" class="st5" width="4.5" height="13.6"/>
	<rect x="251.2" y="215.3" class="st5" width="4.5" height="13.6"/>
	<rect x="257.8" y="215.3" class="st5" width="4.5" height="13.6"/>
	<rect x="264.3" y="215.3" class="st5" width="4.5" height="13.6"/>
	<rect x="270.8" y="215.3" class="st5" width="4.5" height="13.6"/>
	<rect x="194" y="282.6" class="st4" width="81.9" height="23.1"/>
	<rect x="196.3" y="285.5" class="st5" width="4.6" height="17.7"/>
	<path class="st6" d="M206.3,289.3c0,0.8-0.7,1.5-1.5,1.5c-0.8,0-1.5-0.7-1.5-1.5c0-0.8,0.7-1.5,1.5-1.5c0,0,0,0,0,0
		C205.7,287.8,206.3,288.5,206.3,289.3z"/>
	<path class="st6" d="M206.3,295.5c0,0.8-0.7,1.5-1.5,1.5c-0.8,0-1.5-0.7-1.5-1.5c0-0.8,0.7-1.5,1.5-1.5c0,0,0,0,0,0
		C205.7,294,206.3,294.7,206.3,295.5z"/>
	<rect x="212.2" y="287.8" class="st5" width="4.5" height="13.6"/>
	<rect x="218.7" y="287.8" class="st5" width="4.5" height="13.6"/>
	<rect x="225.2" y="287.8" class="st5" width="4.5" height="13.6"/>
	<rect x="231.7" y="287.8" class="st5" width="4.5" height="13.6"/>
	<rect x="238.2" y="287.8" class="st5" width="4.5" height="13.6"/>
	<rect x="244.7" y="287.8" class="st5" width="4.5" height="13.6"/>
	<rect x="251.2" y="287.8" class="st5" width="4.5" height="13.6"/>
	<rect x="257.8" y="287.8" class="st5" width="4.5" height="13.6"/>
	<rect x="264.3" y="287.8" class="st5" width="4.5" height="13.6"/>
	<rect x="270.8" y="287.8" class="st5" width="4.5" height="13.6"/>
	<rect x="194" y="246.4" class="st4" width="81.9" height="23.1"/>
	<rect x="196.3" y="249.3" class="st5" width="4.6" height="17.7"/>
	<path class="st6" d="M206.3,253c0,0.8-0.7,1.5-1.5,1.5c-0.8,0-1.5-0.7-1.5-1.5c0-0.8,0.7-1.5,1.5-1.5c0,0,0,0,0,0
		C205.7,251.6,206.3,252.2,206.3,253z"/>
	<path class="st6" d="M206.3,259.3c0,0.8-0.7,1.5-1.5,1.5c-0.8,0-1.5-0.7-1.5-1.5c0-0.8,0.7-1.5,1.5-1.5c0,0,0,0,0,0
		C205.7,257.8,206.3,258.5,206.3,259.3z"/>
	<rect x="212.2" y="251.6" class="st5" width="4.5" height="13.6"/>
	<rect x="218.7" y="251.6" class="st5" width="4.5" height="13.6"/>
	<rect x="225.2" y="251.6" class="st5" width="4.5" height="13.6"/>
	<rect x="231.7" y="251.6" class="st5" width="4.5" height="13.6"/>
	<rect x="238.2" y="251.6" class="st5" width="4.5" height="13.6"/>
	<rect x="244.7" y="251.6" class="st5" width="4.5" height="13.6"/>
	<rect x="251.2" y="251.6" class="st5" width="4.5" height="13.6"/>
	<rect x="257.8" y="251.6" class="st5" width="4.5" height="13.6"/>
	<rect x="264.3" y="251.6" class="st5" width="4.5" height="13.6"/>
	<rect x="270.8" y="251.6" class="st5" width="4.5" height="13.6"/>
	<path class="st4" d="M244.7,71c0-0.2-0.1-0.5-0.1-0.7c0-0.5-0.1-1.2-0.1-2.1s0-2-0.1-3.2c0-1.4-0.2-2.8-0.6-4.2
		c-0.5-1.7-1.2-3.2-2.2-4.6c-1.1-1.6-2.7-2.9-4.5-3.6c-2-0.7-4.2-1.2-6.4-1.3l-7.1-0.6c-9.7-0.8-18.5-1.4-24.8-1.5
		c-3.2-0.1-5.8-0.1-7.5,0h-2.1c-0.2,0-0.5,0-0.7,0c0.2-0.1,0.5-0.1,0.7-0.1l2.1-0.1c1.8-0.1,4.4-0.1,7.5-0.1
		c6.4,0,15.2,0.5,24.8,1.3l7.1,0.6c2.2,0.1,4.4,0.6,6.5,1.4c1.9,0.8,3.5,2.1,4.7,3.8c1,1.5,1.7,3.1,2.2,4.8c0.3,1.4,0.5,2.8,0.5,4.3
		c0,1.3,0,2.4,0,3.3s0,1.5,0,2.1C244.8,70.6,244.7,70.8,244.7,71z"/>
	<path class="st4" d="M219.9,71c0-0.2,0-0.4,0-0.7v-1.9c0-0.8,0-1.9-0.1-3c-0.1-1.3-0.4-2.6-1-3.8c-0.9-1.3-2.2-2.3-3.7-2.9
		c-1.7-0.7-3.6-0.9-5.4-0.6c-1,0.2-1.9,0.5-2.8,0.9c-0.9,0.5-1.7,1.2-2.2,2.1c-0.5,0.9-0.5,2,0,2.9c0.5,0.9,1.4,1.6,2.5,1.9
		c1,0.2,2.1-0.1,2.9-0.8c0.7-0.7,1.2-1.7,1.3-2.7c0.1-1-0.2-2-0.9-2.8c-0.6-0.8-1.3-1.5-2.2-1.9c-0.9-0.4-1.8-0.6-2.7-0.7
		c-0.9-0.1-1.8-0.3-2.7-0.4c-1.7-0.2-3.4-0.3-4.9-0.4c-3-0.1-5.4-0.1-7.1-0.1H189c-0.2,0-0.5,0-0.7,0c0.2,0,0.4-0.1,0.7-0.1L191,56
		c1.7-0.1,4.1-0.2,7.1-0.1c1.5,0,3.1,0.1,4.9,0.3c0.9,0.1,1.8,0.2,2.7,0.3c0.5,0.1,0.9,0.1,1.4,0.2c0.5,0.1,1,0.3,1.4,0.5
		c0.9,0.5,1.7,1.2,2.4,2c0.7,0.9,1.1,2,1,3.1c-0.1,1.2-0.6,2.3-1.4,3.1c-0.9,0.9-2.1,1.3-3.4,1c-1.2-0.3-2.2-1-2.8-2.1
		c-0.6-1.1-0.6-2.3,0-3.4c0.6-1,1.4-1.7,2.4-2.3c0.9-0.5,1.9-0.8,3-1c1.9-0.3,3.8-0.1,5.6,0.6c1.6,0.6,3,1.6,3.9,3.1
		c0.6,1.2,1,2.6,1,4c0.1,1.2,0,2.2,0,3.1s0,1.4-0.1,1.9C220,70.6,219.9,70.8,219.9,71z"/>
	<path class="st4" d="M251.4,71c-0.1-0.2-0.1-0.5-0.2-0.8c-0.1-0.5-0.2-1.2-0.4-2.2c-0.6-2.7-1.4-5.3-2.4-7.8
		c-1.5-3.8-3.9-7.1-7.1-9.6c-1.9-1.4-4.2-2.3-6.5-2.5c-2.6-0.3-5.1-0.4-7.7-0.4c-10.6-0.2-20.2-0.1-27.1-0.4
		c-3.5-0.1-6.3-0.3-8.2-0.4l-2.2-0.2c-0.3,0-0.5,0-0.8-0.1c0.3,0,0.5,0,0.8,0l2.2,0.1c1.9,0.1,4.7,0.2,8.2,0.3
		c6.9,0.2,16.5,0.1,27.1,0.3c2.6,0,5.2,0.1,7.8,0.4c2.4,0.3,4.8,1.2,6.8,2.6c1.7,1.3,3.3,2.9,4.5,4.8c1.1,1.6,2,3.2,2.7,5
		c1,2.6,1.8,5.2,2.3,7.9c0.2,1,0.3,1.7,0.3,2.2C251.4,70.4,251.4,70.7,251.4,71z"/>
	<rect x="195.2" y="27.3" class="st4" width="79.7" height="11.6"/>
	<rect x="212.7" y="33.1" class="st5" width="43.4" height="5.8"/>
	<path class="st4" d="M307.4,267.3c0,0.1-0.9,0.1-2.4,0.6c-2.1,0.7-4.2,1.7-6,3c-1.3,0.9-2.4,1.9-3.4,3.1c-0.5,0.7-1,1.4-1.4,2.1
		c-0.4,0.8-0.7,1.7-0.9,2.6c-0.9,3.7-0.6,7.8-0.5,12.2s-0.1,8.7-1.8,12.2c-0.8,1.7-1.9,3.1-3.3,4.3c-1.2,1-2.5,1.9-4,2.5
		c-1.2,0.5-2.4,0.9-3.7,1.1c-1,0.2-2,0.2-2.9,0.1c-0.6,0-1.2-0.1-1.8-0.3c-0.2,0-0.4-0.1-0.6-0.2c0-0.1,0.9,0.2,2.5,0.3
		c1,0,1.9,0,2.9-0.2c1.3-0.2,2.5-0.6,3.6-1.2c1.4-0.6,2.7-1.5,3.9-2.5c1.3-1.2,2.4-2.6,3.1-4.2c1.6-3.4,1.9-7.6,1.7-12
		s-0.5-8.6,0.5-12.3c0.2-0.9,0.5-1.8,0.9-2.7c0.4-0.8,0.9-1.5,1.5-2.2c1-1.2,2.2-2.3,3.5-3.2c1.9-1.3,4-2.3,6.2-2.9
		c0.6-0.2,1.2-0.3,1.8-0.3C307,267.3,307.2,267.3,307.4,267.3z"/>
	<rect x="270.6" y="307.1" class="st4" width="6.5" height="8"/>
	<rect x="307.4" y="247.2" class="st5" width="36.7" height="40.2"/>
	<circle class="st4" cx="324.3" cy="268.2" r="12"/>
	<path class="st5" d="M331.8,267.4c0,3.3-2.7,6-6,6s-6-2.7-6-6s2.7-6,6-6S331.8,264.1,331.8,267.4z"/>
	<circle class="st4" cx="312.3" cy="253.4" r="1.1"/>
	<circle class="st4" cx="338.5" cy="253.4" r="1.1"/>
	<circle class="st4" cx="338.7" cy="283.1" r="1.1"/>
	<circle class="st4" cx="312.3" cy="283.6" r="1.1"/>
	<rect x="344.1" y="247.2" class="st4" width="3" height="40.2"/>
	<path class="st4" d="M451,284.3c0.1,0.1,0.2,0.2,0.3,0.4c0.2,0.3,0.4,0.7,0.7,1.2c0.4,0.6,0.7,1.3,1,2c0.4,0.9,0.8,1.9,1.1,2.8
		c0.8,2.7,1.2,5.5,1.2,8.3c-0.1,3.7-0.9,7.4-2.4,10.8c-0.2,0.5-0.4,0.9-0.6,1.4l-0.8,1.4c-0.6,0.9-1.2,1.9-1.8,2.7
		c-1.4,1.8-3.1,3.5-5.1,4.8l-0.7,0.5l-0.8,0.5c-0.5,0.3-1.1,0.6-1.6,0.9l-1.8,0.8c-0.6,0.3-1.2,0.4-1.8,0.6c-2.6,0.7-5.2,1.1-7.9,1
		c-2.8-0.1-5.6-0.5-8.2-1.4c-2.8-0.9-5.4-2.3-7.7-4c-2.5-1.8-4.5-4-6.1-6.6c-1.5-2.7-2.8-5.5-4-8.4c-1.1-2.8-2.8-5.4-4.9-7.7
		c-1.1-1-2.3-1.8-3.7-2.4c-1.4-0.5-2.8-0.9-4.2-0.9c-5.8-0.3-11.5,3-13.5,8c-0.5,1.2-0.7,2.5-0.6,3.8c0.1,1.3,0.5,2.4,1.4,3.4
		c0.9,0.9,2.1,1.3,3.3,1.2c1.2-0.1,2.3-0.5,3.2-1.3c1.7-1.6,2.5-3.8,2.4-6.1c-0.1-2.1-0.6-4.2-1.6-6.1c-3.9-7.4-13.1-10.3-20.5-6.4
		c-0.2,0.1-0.3,0.2-0.5,0.3c-1,0.6-1.5,1-1.5,1c0.5-0.4,1-0.8,1.5-1.1c1.5-0.9,3.2-1.6,4.9-1.9c2.8-0.6,5.6-0.3,8.3,0.6
		c3.5,1.4,6.4,3.9,8.2,7.3c1,1.9,1.6,4,1.7,6.2c0,1.2-0.1,2.3-0.5,3.4c-0.4,1.2-1.1,2.2-2,3c-1,0.8-2.2,1.3-3.5,1.4
		c-1.3,0.1-2.7-0.4-3.6-1.4c-0.9-1-1.4-2.3-1.5-3.7c-0.1-1.4,0.1-2.7,0.6-4c2-5.2,8-8.6,13.9-8.3c1.5,0.1,3,0.4,4.4,1
		c1.4,0.6,2.7,1.4,3.8,2.5c2.1,2.3,3.8,4.9,5,7.8c1.2,2.8,2.5,5.6,4,8.3c1.6,2.5,3.6,4.7,6,6.5c2.3,1.7,4.9,3,7.6,3.9
		c2.6,0.8,5.3,1.3,8.1,1.4c2.6,0.1,5.2-0.3,7.7-1c0.6-0.2,1.2-0.4,1.8-0.6l1.7-0.7c0.6-0.3,1.1-0.6,1.6-0.9l0.8-0.4l0.7-0.5
		c1.9-1.3,3.6-2.9,5-4.7c0.7-0.9,1.3-1.8,1.8-2.7l0.8-1.4c0.2-0.5,0.4-0.9,0.6-1.4c1.5-3.3,2.3-7,2.4-10.6c0.1-2.8-0.3-5.5-1-8.2
		c-0.3-1-0.6-1.9-1-2.8c-0.3-0.7-0.6-1.4-1-2c-0.3-0.5-0.5-0.9-0.7-1.2L451,284.3z"/>
	<rect x="443.1" y="272.5" class="st4" width="19" height="19"/>
	<rect x="370.5" y="119.4" class="st6" width="64.8" height="47.6"/>
	<path class="st4" d="M435.3,167c0,0,0-0.3,0-0.9s0-1.4,0-2.5c0-2.2,0-5.5-0.1-9.6c0-8.3-0.1-20.2-0.1-34.6l0.2,0.2l-64.8,0.1l0,0
		l0.3-0.3c0,17.1,0,33.3,0,47.6l-0.2-0.2l46.7,0.1l13.3,0.1h3.5h0.9L435.3,167c0,0-0.1,0-0.2-0.1h-0.9h-3.5l-13.2,0.1l-46.8,0.1
		h-0.2v-0.2c0-14.3,0-30.5,0-47.6V119h0.3l64.8,0.1h0.2v0.3c0,14.4-0.1,26.4-0.1,34.7c0,4.1,0,7.4-0.1,9.6c0,1.1,0,1.9,0,2.5
		S435.3,167,435.3,167z"/>
	<path class="st7" d="M387.3,134.4c-0.1,0.2,1.5,21.1,1.5,20.9s29.4,0,29.4,0l0.4-18.6h-21.9l-1-2.6L387.3,134.4z"/>
	<path class="st4" d="M434.7,134.4c0,0,0.1,0,0.2,0h0.5h2.1l8-0.1l12.2-0.1h3.6c1.2,0,2.5,0,3.8-0.1c1.3-0.1,2.5-0.7,3.4-1.6
		c0.8-1,1.3-2.4,1.2-3.7l0,0c0-7.2,0-15.2,0-23.5c0-17.1,0-32.6,0.1-43.9c0-5.6,0.1-10.1,0.1-13.3c0-1.6,0-2.8,0-3.6
		c0-0.4,0-0.7,0-0.9c0-0.1,0-0.2,0-0.3c0,0,0,0.1,0,0.3s0,0.6,0,0.9c0,0.9,0,2.1,0,3.6c0,3.2,0,7.7,0.1,13.3c0,11.3,0,26.8,0.1,43.9
		c0,8.3,0,16.3,0,23.5l0,0c0.1,1.5-0.4,2.9-1.3,4c-1,1-2.3,1.6-3.7,1.8c-1.3,0.1-2.6,0-3.8,0h-3.6l-12.2-0.1l-8-0.1h-2.1h-0.5
		L434.7,134.4z"/>
	<path class="st4" d="M370.5,148.8h-0.2h-0.7h-2.6h-9.7h-14.4h-8.5c-1.6,0.1-3.1-0.3-4.4-1.2c-1.3-1-2-2.6-2-4.2c0-0.2,0-0.3,0-0.5
		l0,0c0-6.2,0-12.1,0-17.5c0-2.7,0-5.3,0-7.6c0-1.2,0-2.4,0-3.5c0-1-0.2-2.1-0.6-3c-0.5-0.8-1.3-1.3-2.2-1.4
		c-0.9-0.1-1.7-0.2-2.6-0.4c-0.7-0.3-1.3-0.9-1.5-1.7c-0.2-0.6-0.4-1.2-0.4-1.9c-0.1-0.9-0.1-1.8,0-2.6c0-0.3,0.1-0.5,0.1-0.7
		c0-0.1,0-0.2,0.1-0.2c0,0,0,0.3-0.1,0.9c-0.1,0.9-0.1,1.7,0,2.6c0.1,0.6,0.2,1.2,0.5,1.8c0.3,0.7,0.8,1.2,1.4,1.5
		c0.8,0.2,1.7,0.3,2.5,0.4c0.5,0.1,0.9,0.2,1.4,0.5c0.5,0.3,0.9,0.6,1.1,1.1c0.5,1,0.7,2.1,0.7,3.2c0.1,1.1,0.1,2.3,0.1,3.5
		c0,2.4,0,5,0,7.6c0,5.4,0,11.3,0,17.5l0,0v0.5c0,1.5,0.7,2.9,1.8,3.8c1.2,0.8,2.7,1.2,4.1,1.1h8.5l14.4,0.1l9.7,0.1l2.6,0.1h0.7
		L370.5,148.8z"/>
	<path class="st4" d="M322.7,101.4c0,1.2-0.9,2.1-2.1,2.1s-2.1-0.9-2.1-2.1c0-1.2,0.9-2.1,2.1-2.1c0,0,0,0,0,0
		C321.8,99.3,322.7,100.2,322.7,101.4C322.7,101.4,322.7,101.4,322.7,101.4z"/>
	<path class="st4" d="M370.5,142.6c-0.3,0-0.5,0.1-0.8,0.1l-2.2,0.1l-8.2,0.1l-12.3,0.1h-3.6c-1.3,0-2.5,0-3.8-0.1
		c-1.4-0.2-2.6-0.8-3.5-1.9c-0.9-1.1-1.3-2.5-1.2-3.9v-3.2c0-5.8,0-11.3,0-16.3c0-2.5,0-4.9,0-7.1c0-1.1,0-2.1-0.2-3.2
		c0-1-0.4-1.9-1.1-2.6c-0.7-0.5-1.5-0.8-2.4-0.9c-0.8,0-1.7-0.2-2.4-0.6c-0.6-0.4-1-1.1-1.2-1.8c-0.2-0.6-0.3-1.2-0.3-1.8
		c-0.1-0.8,0-1.6,0.1-2.4c0-0.3,0.1-0.6,0.2-0.8c0,0,0,0.3,0,0.9c-0.1,0.8-0.1,1.6,0,2.4c0,0.6,0.2,1.1,0.3,1.7
		c0.2,0.6,0.6,1.2,1.1,1.6c0.7,0.4,1.5,0.5,2.2,0.5c0.9,0,1.8,0.4,2.6,0.9c0.7,0.7,1.2,1.7,1.2,2.8c0.1,1.1,0.2,2.2,0.2,3.2
		c0,2.2,0,4.6,0,7.1c0,5,0,10.5,0,16.3v3.2c-0.1,1.3,0.3,2.5,1.1,3.5c0.8,0.9,1.9,1.5,3.2,1.7c1.2,0.1,2.4,0.2,3.7,0.1h3.6l12.3,0.1
		l8.2,0.1l2.2,0.1C369.9,142.5,370.2,142.5,370.5,142.6z"/>
	<circle class="st4" cx="327.9" cy="95.4" r="2.1"/>
	<polygon class="st5" points="370.5,119.4 370.5,126.5 435.3,125.7 435.3,119.4 	"/>
</g>
<g id="Robot--inject-69">
	<path class="st7" d="M66.9,160.3c0.3,0.2,40.9,5.1,37.5,12.8s-39.3,4.8-39.3,4.8L66.9,160.3z"/>
	<path class="st8" d="M66.9,160.3c0.3,0.2,40.9,5.1,37.5,12.8s-39.3,4.8-39.3,4.8L66.9,160.3z"/>
	<rect x="67" y="169.2" class="st5" width="81.9" height="23.1"/>
	<rect x="69.3" y="172.1" class="st4" width="4.6" height="17.7"/>
	<path class="st6" d="M79.3,175.8c0,0.8-0.6,1.5-1.4,1.5c-0.8,0-1.5-0.6-1.5-1.4c0-0.8,0.6-1.5,1.4-1.5c0,0,0,0,0,0
		C78.6,174.3,79.3,175,79.3,175.8z"/>
	<path class="st6" d="M79.3,182c0,0.8-0.6,1.5-1.4,1.5c-0.8,0-1.5-0.6-1.5-1.4c0-0.8,0.6-1.5,1.4-1.5c0,0,0,0,0,0
		C78.6,180.6,79.3,181.2,79.3,182z"/>
	<rect x="85.1" y="174.3" class="st4" width="4.5" height="13.6"/>
	<rect x="91.6" y="174.3" class="st4" width="4.5" height="13.6"/>
	<rect x="98.1" y="174.3" class="st4" width="4.5" height="13.6"/>
	<rect x="104.6" y="174.3" class="st4" width="4.5" height="13.6"/>
	<rect x="111.1" y="174.3" class="st4" width="4.5" height="13.6"/>
	<rect x="117.7" y="174.3" class="st4" width="4.5" height="13.6"/>
	<rect x="124.2" y="174.3" class="st4" width="4.5" height="13.6"/>
	<rect x="130.7" y="174.3" class="st4" width="4.5" height="13.6"/>
	<rect x="137.2" y="174.3" class="st4" width="4.5" height="13.6"/>
	<rect x="143.7" y="174.3" class="st4" width="4.5" height="13.6"/>
	<rect x="148.9" y="169.2" class="st4" width="13.3" height="23.1"/>
	<path class="st4" d="M160.5,183.4c7.6,4,5.5,13.2,9.7,19.5c2.4,3.6,6.5,5.7,10.8,5.8c4.8,0,9.3-2.4,12.1-6.3
		c3.8-5.1,6.8-19.7,16.4-14.8c0.3,0.1,0.5-0.3,0.3-0.4c-10.9-5.6-14.4,13.5-20.1,17.9c-4.2,3.4-10.1,4-14.9,1.4
		c-4.3-2.5-5.8-6.8-6.9-11.3c-1.2-4.9-2.4-9.7-7.1-12.2C160.5,182.8,160.2,183.3,160.5,183.4L160.5,183.4z"/>
	<path class="st7" d="M68.2,161.3c0.4,0.3-1.3,56.7-25.3,56.7c-24.3,0-30.1-51.4-27.9-55.6C18.4,155.9,46.8,143.6,68.2,161.3z"/>
	<path class="st6" d="M13.9,161.7c0.2,0,0.4,0.1,0.6,0.2l1.5,0.5c0.7,0.3,1.5,0.6,2.4,0.9s2,0.7,3.3,1s2.6,0.7,4,1s3,0.6,4.7,0.9
		c3.6,0.5,7.2,0.8,10.9,0.9c3.6,0,7.3-0.3,10.9-0.8c1.7-0.3,3.2-0.5,4.7-0.8s2.8-0.6,4-1s2.3-0.7,3.3-1s1.8-0.6,2.5-0.8l1.5-0.5
		c0.2-0.1,0.4-0.1,0.6-0.1c-0.2,0.1-0.3,0.2-0.5,0.3l-1.5,0.6c-0.7,0.3-1.5,0.6-2.4,0.9s-2,0.7-3.3,1s-2.6,0.7-4,1s-3,0.6-4.7,0.9
		c-3.6,0.5-7.3,0.8-10.9,0.8c-3.7,0-7.3-0.3-10.9-0.9c-1.7-0.3-3.3-0.6-4.7-0.9s-2.8-0.7-4-1.1s-2.3-0.8-3.3-1.1s-1.8-0.6-2.4-0.9
		l-1.5-0.6C14.2,161.8,14,161.7,13.9,161.7z"/>
	<g class="st9">
		<path d="M20.5,157.6c4.9,6.3,12.5,8.3,20.5,8.3s15.5-2.6,20.5-8.8c0,0-6-5.8-20.8-5.8C33.4,151.3,26.4,153.5,20.5,157.6z"/>
	</g>
	<path class="st6" d="M42.2,217.1c-0.2-0.1-0.3-0.1-0.5-0.2c-0.4-0.3-0.8-0.6-1.2-0.9c-1.3-1.3-2.3-3-2.9-4.8
		c-0.7-2.7-1-5.5-0.8-8.3c0.1-3.1,0.3-6.5,0.4-10.1c0.3-7.2,0.6-13.7,0.9-18.4c0.1-2.3,0.3-4.2,0.3-5.6c0-0.6,0.1-1.1,0.1-1.5
		c0-0.2,0-0.4,0.1-0.5c0,0.2,0,0.4,0,0.5c0,0.4,0,0.9,0,1.5c0,1.4-0.1,3.3-0.2,5.6c-0.2,4.7-0.4,11.2-0.7,18.4
		c-0.2,3.6-0.3,7-0.5,10.1c-0.2,2.7,0,5.5,0.7,8.1c0.5,1.8,1.4,3.4,2.7,4.8C41.2,216.2,41.7,216.7,42.2,217.1z"/>
	<path class="st6" d="M39.2,204.1c0,0,0.3-0.3,0.8-0.2c0.3,0.1,0.6,0.3,0.8,0.6c0.2,0.4,0.1,0.9-0.3,1.2c-0.3,0.4-0.8,0.4-1.2,0.2
		c-0.3-0.2-0.5-0.5-0.5-0.9c0-0.2,0.1-0.5,0.3-0.6c0.1-0.1,0.2-0.1,0.2-0.1s-0.2,0.3-0.1,0.7c0,0.2,0.2,0.4,0.3,0.5
		c0.2,0.1,0.5,0,0.7-0.2c0.3-0.3,0.3-0.7,0-1c-0.1-0.1-0.2-0.1-0.3-0.2C39.6,204.1,39.3,204.2,39.2,204.1z"/>
	<path class="st6" d="M40.7,195.8c0,0,0-0.1,0.2-0.1c0.2,0,0.4,0,0.6,0.2c0.3,0.2,0.4,0.5,0.3,0.9c-0.1,0.4-0.5,0.7-0.9,0.6
		c-0.4,0-0.8-0.2-0.9-0.6c-0.1-0.3-0.1-0.6,0-0.9c0.2-0.5,0.6-0.5,0.6-0.5s-0.2,0.2-0.2,0.6c-0.1,0.3,0.1,0.7,0.4,0.8
		c0.1,0,0.1,0,0.2,0c0.2,0,0.4-0.1,0.5-0.3c0-0.2,0-0.3-0.1-0.5C41,195.8,40.7,195.9,40.7,195.8z"/>
	<path class="st10" d="M37.7,191.3c0,0,13.8,7.8,24.9,5.8l0.8-2.5c0,0-16.3-1.6-25.7-4.3V191.3z"/>
	<path class="st7" d="M41.8,178.2c0,0,43.9,3.3,38.4,11.4s-24.9,3.6-24.9,3.6S42.9,184.3,41.8,178.2z"/>
	<path class="st6" d="M64,194.6c-0.3,0-0.7,0-1,0c-0.7,0-1.7-0.1-2.9-0.2c-2.4-0.2-5.7-0.6-9.4-1.2s-6.9-1.3-9.3-1.9
		c-1.2-0.3-2.1-0.5-2.8-0.7c-0.3-0.1-0.7-0.2-1-0.4c0.3,0,0.7,0.1,1,0.1l2.8,0.6c2.4,0.5,5.6,1.1,9.3,1.7s7,1,9.3,1.3l2.8,0.4
		C63.3,194.5,63.7,194.5,64,194.6z"/>
	<path class="st6" d="M71.2,182.7c-0.4,0-0.9-0.1-1.3-0.2l-3.5-0.7c-3-0.6-7-1.5-11.6-2.2s-8.7-1.4-11.7-1.7
		c-1.5-0.2-2.7-0.3-3.6-0.4c-0.4,0-0.9-0.1-1.3-0.2c0.4,0,0.9,0,1.3,0c0.8,0,2.1,0.1,3.6,0.2c3,0.2,7.2,0.8,11.7,1.6
		s8.6,1.7,11.6,2.4c1.5,0.4,2.7,0.7,3.5,0.9C70.4,182.4,70.8,182.5,71.2,182.7z"/>
	<g class="st11">
		<path class="st6" d="M66.6,165.6c0.1,0.3-2.4,1.8-7,3.4c-1.1,0.4-2.4,0.8-3.8,1.1s-2.9,0.7-4.4,1c-3.4,0.6-6.9,0.9-10.4,0.9
			c-3.5,0-7-0.4-10.4-0.9c-1.6-0.3-3.1-0.6-4.4-1s-2.7-0.7-3.8-1.1c-4.6-1.6-7.1-3.1-7-3.4s3,0.6,7.5,1.6c1.2,0.3,2.4,0.6,3.8,0.8
			s2.8,0.5,4.3,0.7c3.3,0.4,6.7,0.6,10,0.7c3.3,0,6.7-0.2,10-0.7c1.5-0.2,3-0.4,4.3-0.7s2.6-0.5,3.8-0.8
			C63.6,166.2,66.4,165.3,66.6,165.6z"/>
	</g>
	<circle class="st7" cx="41.7" cy="134.8" r="26.5"/>
	<path class="st4" d="M67.9,131.2c-9.5,1.5-19.1,1.9-28.6,1.2c-3.5-0.3-6.5,2.3-6.8,5.8c0,0.1,0,0.1,0,0.2l0,0
		c-0.1,3.4,2.5,6.3,5.9,6.6c10.4,0.7,19.9,0.7,28.2-1.1C66.6,143.9,69.2,139.6,67.9,131.2z"/>
	<path class="st6" d="M43.7,138.7c-0.4,0-0.7-0.4-0.7-0.8c0-0.4,0.4-0.7,0.8-0.7c0.4,0,0.7,0.4,0.7,0.8c0,0,0,0,0,0
		C44.5,138.4,44.1,138.7,43.7,138.7z"/>
	<path class="st6" d="M62.6,138.1c-0.4,0-0.7-0.4-0.7-0.8c0-0.4,0.4-0.7,0.8-0.7c0.4,0,0.7,0.4,0.7,0.8c0,0,0,0,0,0
		C63.4,137.9,63,138.2,62.6,138.1z"/>
	<path class="st6" d="M58,138.3c0.1,0-0.1,0.6-0.7,1.4c-0.8,1.1-2,1.8-3.3,1.9c-1.3,0.1-2.6-0.4-3.5-1.4c-0.7-0.7-0.9-1.3-0.8-1.3
		s0.4,0.5,1.1,1.1c0.9,0.8,2.1,1.2,3.3,1.2c1.2-0.2,2.2-0.8,3-1.7C57.6,138.8,57.9,138.3,58,138.3z"/>
	<path class="st6" d="M42.6,108.3c0,0,0.1,0,0.3,0c0.3,0,0.6,0.1,0.8,0.2c1,0.3,2,0.7,2.9,1.3c1.3,0.8,2.5,1.9,3.4,3.2
		c1.1,1.6,2,3.3,2.7,5.1c1.3,3.3,1.9,6.7,1.8,10.2c0,1.1-0.1,2.1-0.2,3.1c0,0.4-0.1,0.8-0.3,1.1c-0.1,0,0.2-1.6,0.1-4.3
		c-0.1-3.4-0.8-6.8-2-10c-0.7-1.8-1.5-3.4-2.6-5c-0.9-1.2-2-2.3-3.3-3.2C45.2,109.4,43.9,108.8,42.6,108.3z"/>
	<path class="st6" d="M24,135.3c0,0,0-0.1,0-0.4c0-0.4,0-0.7,0.1-1.1c0.1-1.4,0.4-2.7,0.7-4c1.2-4.3,3.5-8.2,6.6-11.4
		c3.1-3.3,7-5.6,11.4-6.7c1.3-0.3,2.7-0.4,4-0.4c0.4,0,0.7,0,1.1,0.1c0.3,0,0.4,0.1,0.4,0.1c-1.8,0-3.6,0.2-5.4,0.6
		c-4.3,1.2-8.1,3.5-11.1,6.7c-3.1,3.2-5.3,7-6.6,11.2C24.6,131.8,24.3,133.5,24,135.3z"/>
	<path class="st6" d="M49,116.7c0-0.1,0.3-0.2,0.6,0c0.2,0.2,0.3,0.4,0.3,0.7c-0.1,0.3-0.3,0.6-0.7,0.7c-0.3,0.1-0.7-0.1-0.9-0.4
		c-0.1-0.2-0.1-0.5,0-0.8C48.6,116.6,48.9,116.7,49,116.7c-0.1,0.1-0.2,0.2-0.3,0.4c0,0.1,0,0.2,0.1,0.3c0.1,0.1,0.2,0.2,0.4,0.1
		c0.1,0,0.2-0.1,0.3-0.3c0-0.1,0-0.2-0.1-0.3C49.2,116.8,49,116.8,49,116.7z"/>
	<path class="st6" d="M30.1,135c0-0.1,0.3-0.2,0.6,0c0.2,0.2,0.3,0.4,0.3,0.7c-0.1,0.3-0.3,0.6-0.7,0.7c-0.3,0.1-0.7-0.1-0.9-0.4
		c-0.1-0.2-0.1-0.5,0-0.8C29.7,134.9,30,134.9,30.1,135c-0.1,0-0.2,0.2-0.3,0.4c0,0.1,0,0.2,0.1,0.3c0.1,0.1,0.2,0.2,0.4,0.1
		c0.1,0,0.2-0.1,0.3-0.3c0-0.1,0-0.2-0.1-0.3C30.3,135.1,30.1,135.1,30.1,135z"/>
	<path class="st6" d="M50.8,123.3c0-0.1,0.2-0.2,0.6,0c0.2,0.2,0.3,0.4,0.3,0.7c-0.1,0.4-0.5,0.8-0.9,0.7c-0.2,0-0.5-0.2-0.6-0.4
		c-0.1-0.2-0.1-0.5,0-0.8C50.4,123.2,50.7,123.2,50.8,123.3c-0.1,0-0.2,0.2-0.3,0.4c0,0.1,0,0.2,0.1,0.3c0.1,0.1,0.2,0.2,0.4,0.1
		c0.1,0,0.2-0.1,0.3-0.3c0-0.1,0-0.2-0.1-0.3C51,123.4,50.8,123.4,50.8,123.3z"/>
	<path class="st6" d="M18,134.3c0-0.1,0.2-0.2,0.6,0c0.2,0.2,0.3,0.4,0.3,0.7c-0.1,0.4-0.5,0.8-0.9,0.7c-0.2,0-0.5-0.2-0.6-0.4
		c-0.1-0.2-0.1-0.5,0-0.8C17.7,134.2,18,134.2,18,134.3c-0.1,0.1-0.2,0.2-0.3,0.4c0,0.1,0,0.2,0.1,0.3c0.1,0.1,0.2,0.2,0.4,0.1
		c0.1,0,0.2-0.1,0.3-0.3c0-0.1,0-0.2-0.1-0.3C18.2,134.4,18,134.4,18,134.3z"/>
	<path class="st6" d="M32.6,138.2c-2.9,0-5.8-0.2-8.7-0.5c-2.9-0.2-5.8-0.5-8.7-1.1c2.9,0,5.8,0.2,8.7,0.5
		C26.9,137.3,29.8,137.7,32.6,138.2z"/>
	<path class="st4" d="M21.7,137.2c0,1.3,1,2.3,2.3,2.3s2.3-1,2.3-2.3c0-1.3-1-2.3-2.3-2.3c0,0,0,0,0,0
		C22.7,134.9,21.7,135.9,21.7,137.2z"/>
	<g class="st11">
		<path class="st6" d="M26.7,152.5c-0.1,0.1-0.9,0-2.1-0.8c-1.7-1.2-3.1-2.8-4.1-4.7c-1.4-2.7-2.3-5.6-2.7-8.6
			c-0.4-3.7-0.1-7.5,0.9-11.1c2-6.6,6.5-12.2,12.5-15.4c1.8-1,3.7-1.7,5.7-2.2c1.4-0.3,2.2-0.3,2.2-0.1c0.1,0.4-2.9,1.2-7,3.9
			c-2.3,1.6-4.4,3.5-6.2,5.6c-2.2,2.7-3.8,5.7-4.8,9c-1,3.3-1.3,6.7-1,10.1c0.2,2.8,0.9,5.5,2,8.1c0.7,1.7,1.7,3.3,3,4.7
			C26.1,151.9,26.8,152.3,26.7,152.5z"/>
	</g>
</g>
<g id="Character--inject-69">
	<path class="st5" d="M475.8,8.7c0.2,0.5,2.7,35.9,2.7,35.9l-19.6-1.5l-2.9-29L475.8,8.7z"/>
	<polygon class="st4" points="478.5,44.6 480.4,44 477.6,8.2 475.6,8.8 	"/>
	<path class="st4" d="M465.9,15.8c0,0.5-0.4,0.8-0.8,0.8c-0.5,0-0.8-0.4-0.8-0.8s0.4-0.8,0.8-0.8S465.9,15.4,465.9,15.8
		C465.9,15.8,465.9,15.8,465.9,15.8z"/>
	<path class="st4" d="M527.1,24.6c-0.3,0.8,0.1,1.7,0.9,2c0.4,0.2,0.8,0.1,1.2,0c1-0.5,1.3-1.9,1.1-3s-0.5-2.4,0.1-3.4
		c0.5-0.7,1.1-1.3,1.9-1.8c1.1-1,1.7-2.6,1.6-4.1c-0.2-1.6-1.2-2.9-2.7-3.4c-1.5-0.5-3.3-0.1-4.4-1.3c-0.8-0.8-0.8-2.1-1.3-3.1
		c-0.9-1.5-2.9-1.9-4.7-1.7s-3.5,0.6-5.2,0.1c-1.4-0.4-2.5-1.5-3.8-2.2c-3.8-2-8.4-0.5-10.4,3.2c-1.1,2.1-1.2,4.6-0.2,6.8
		c0.4,1.1,1.2,2,2.3,2.5"/>
	<path class="st12" d="M525.4,54.4l-16.6-1.3c-0.1-1.9,0-9.4,0-9.4s-6.9-1.1-7-8s1.1-22.7,1.1-22.7l0,0c8-3.4,17.2-2.3,24,3l1,0.8
		L525.4,54.4z"/>
	<path class="st4" d="M504.6,24.8c0.4-0.4,0.4-1,0.1-1.4s-1-0.4-1.4-0.1c-0.4,0.4-0.4,1-0.1,1.4c0,0,0,0,0,0
		C503.6,25.2,504.2,25.2,504.6,24.8z"/>
	<path class="st4" d="M502.9,23.3c0.1,0.1,0.8-0.4,1.7-0.4s1.6,0.5,1.7,0.4s-0.1-0.3-0.4-0.5c-0.4-0.3-0.9-0.5-1.4-0.4
		c-0.5,0-1,0.2-1.4,0.5C503,23,502.9,23.2,502.9,23.3z"/>
	<path class="st4" d="M513.8,24.1c-0.5,0.3-0.6,0.9-0.3,1.4c0.3,0.5,0.9,0.6,1.4,0.3c0.5-0.3,0.6-0.9,0.3-1.4
		C514.9,24,514.3,23.8,513.8,24.1C513.8,24.1,513.8,24.1,513.8,24.1z"/>
	<path class="st4" d="M513.2,24.1c0.1,0.1,0.8-0.4,1.7-0.4s1.6,0.5,1.7,0.4s-0.1-0.3-0.3-0.5c-0.4-0.3-0.9-0.4-1.4-0.4
		c-0.5,0-1,0.2-1.4,0.5C513.3,23.8,513.2,24.1,513.2,24.1z"/>
	<path class="st4" d="M509.4,31.9c-0.5-0.2-1-0.3-1.5-0.3c-0.3,0-0.4-0.1-0.5-0.2c0-0.2,0.1-0.5,0.2-0.7c0.2-0.6,0.5-1.3,0.8-1.9
		c0.7-1.6,1.2-3.3,1.6-5.1c-0.9,1.6-1.6,3.2-2.1,4.9c-0.2,0.7-0.5,1.3-0.7,1.9c-0.2,0.3-0.2,0.7-0.1,1c0.1,0.2,0.2,0.3,0.4,0.4
		c0.1,0,0.3,0.1,0.4,0.1C508.4,32,508.9,32,509.4,31.9z"/>
	<path class="st6" d="M512.5,33c-1.5,0.7-3.1,1.1-4.7,1.4c0.7,1,2,1.4,3.1,1C513,34.6,512.5,33,512.5,33z"/>
	<path class="st13" d="M508.9,43.6c3.2,0.1,6.3-0.8,9-2.6c0,0-2.1,5-9,4.3V43.6z"/>
	<path class="st4" d="M502.9,14.7c0,0,4,2.3,9.7,0c3.7-1.5,7.9-2.1,8.8-1.3s0.8,4.5,4.2,5.8c0,0-0.8,7,2.1,7c2.8,0,1.9-11,1.9-11
		l-6.6-3.8l-7.4-2l-7.1,0.5l-5.5,1.1V14.7z"/>
	<path class="st12" d="M527.2,24c0.1-0.1,4.7-1.4,4.6,3.3c-0.1,4.7-4.8,3.6-4.8,3.4S527.2,24,527.2,24z"/>
	<path class="st13" d="M528.5,29c0,0,0.1,0.1,0.2,0.1c0.2,0.1,0.4,0.1,0.6,0c0.6-0.4,1-1.1,1-1.8c0-0.4,0-0.8-0.2-1.2
		c-0.1-0.3-0.3-0.5-0.6-0.6c-0.2-0.1-0.4,0-0.5,0.2c-0.1,0.1,0,0.2-0.1,0.2c-0.1,0-0.1-0.1-0.1-0.3c0-0.1,0.1-0.2,0.2-0.3
		c0.1-0.1,0.3-0.1,0.5-0.1c0.4,0.1,0.7,0.4,0.8,0.8c0.2,0.4,0.3,0.9,0.2,1.3c0,0.9-0.5,1.6-1.3,2c-0.3,0.1-0.5,0-0.8-0.1
		C528.5,29.1,528.4,29,528.5,29z"/>
	<path class="st4" d="M530.4,9.4c0,0.2-0.7,0.1-1.5,0.3s-1.3,0.7-1.4,0.6s0.3-0.8,1.3-1.1S530.5,9.2,530.4,9.4z"/>
	<path class="st4" d="M527.8,6.4c0.3,0.7,0.3,1.5,0.1,2.2c-0.3,1.3-1,2-1.1,1.9s0.4-0.9,0.6-2C527.6,7.5,527.6,6.4,527.8,6.4z"/>
	<path class="st4" d="M507.5,21.7c-0.2,0.3-1,0-2.1,0s-2,0.1-2.1-0.2s0.8-0.9,2.2-0.9S507.7,21.5,507.5,21.7z"/>
	<path class="st4" d="M518.1,20.8c-0.1,0.3-1,0-2.1,0s-2,0.1-2.1-0.2s0.8-0.9,2.2-0.9S518.3,20.6,518.1,20.8z"/>
	<path class="st7" d="M557.1,311.9l1.6,6.9c0,0,11.3,14.6,14.8,13.9c2.3-0.5-0.5-4.3-4.8-15.4l-0.9-4.6L557.1,311.9z"/>
	<path class="st4" d="M573.9,330.6c0,0.1,0,0.1-0.1,0.2c-0.1,0.2-0.3,0.3-0.5,0.4c-0.3,0.2-0.7,0.2-1,0.2c-0.5,0-0.9-0.2-1.3-0.5
		c-2-1.6-3.9-3.4-5.7-5.3c-1.8-1.9-3.4-3.8-5-5.9c-0.6-0.8-1.1-1.4-1.4-1.9l-0.4-0.5c-0.1-0.1-0.1-0.2-0.1-0.2l0.2,0.2l0.4,0.5
		c0.4,0.5,0.9,1.1,1.4,1.9c1.2,1.5,3,3.7,5.1,5.9c1.8,1.9,3.6,3.7,5.6,5.3c0.6,0.5,1.4,0.6,2.2,0.3
		C573.6,331,573.8,330.8,573.9,330.6z"/>
	<path class="st4" d="M572.3,325.9c0,0-0.4,0-0.9,0c-0.7,0.1-1.4,0.4-2,0.8c-0.6,0.4-1.2,0.9-1.5,1.5c-0.3,0.5-0.3,0.8-0.4,0.8
		c0-0.3,0.1-0.6,0.3-0.9c0.3-0.7,0.9-1.3,1.5-1.6c0.6-0.4,1.4-0.7,2.1-0.7C571.7,325.7,572.1,325.8,572.3,325.9z"/>
	<path class="st4" d="M561.7,322.4c0,0,0.1-0.5,0.2-1.3c0.1-1-0.1-2.1-0.6-3c-0.5-0.9-1.2-1.7-2.2-2.2c-0.4-0.2-0.8-0.3-1.2-0.4
		c0.1,0,0.2,0,0.3,0c0.3,0.1,0.6,0.2,0.9,0.3c1,0.5,1.8,1.2,2.3,2.2c0.5,1,0.7,2.1,0.5,3.1c0,0.3-0.1,0.6-0.2,1
		C561.8,322.2,561.7,322.3,561.7,322.4z"/>
	<path class="st4" d="M557.8,313.1c0.3,0.7,0.5,1.4,0.6,2.2c0.2,1.2,0.4,2.2,0.4,2.2c-0.3-0.7-0.5-1.4-0.6-2.2
		C558,314.1,557.8,313.1,557.8,313.1z"/>
	<path class="st4" d="M568.9,318.3c0,0.1-0.6,0-1.4,0.2s-1.3,0.5-1.3,0.4c0.4-0.3,0.8-0.5,1.3-0.6
		C567.9,318.2,568.4,318.2,568.9,318.3z"/>
	<path class="st4" d="M569.1,319.5c0,0.1-0.5,0-1.2,0.2s-1.1,0.4-1.1,0.4c0.3-0.3,0.7-0.5,1.1-0.6
		C568.3,319.3,568.7,319.3,569.1,319.5z"/>
	<path class="st4" d="M570,321c-0.8-0.1-1.6,0.1-2.3,0.5c0.2-0.4,0.6-0.6,1.1-0.7C569.2,320.7,569.6,320.7,570,321z"/>
	<path class="st4" d="M568.1,317.8c-0.1,0-0.3,0-0.4,0c-0.3-0.1-0.7-0.2-1-0.3c-0.5-0.2-1-0.4-1.4-0.6c-0.2-0.1-0.5-0.3-0.7-0.4
		c-0.3-0.2-0.5-0.5-0.6-0.9c0.1-0.4,0.4-0.6,0.8-0.6c0,0,0.1,0,0.1,0c0.3,0.1,0.6,0.3,0.8,0.5c0.4,0.4,0.8,0.8,1,1.1
		s0.5,0.6,0.6,0.8c0.1,0.1,0.1,0.2,0.2,0.3c0,0-0.3-0.4-0.9-1.1c-0.3-0.3-0.6-0.7-1-1.1c-0.2-0.2-0.4-0.4-0.7-0.5
		c-0.3-0.1-0.6,0.1-0.6,0.3c0,0.3,0.3,0.5,0.5,0.7s0.5,0.3,0.8,0.5c0.4,0.2,0.9,0.5,1.4,0.6C567.6,317.7,568.1,317.8,568.1,317.8z"
		/>
	<path class="st4" d="M567.5,317.7c0-0.1,0-0.2,0-0.3c0-0.2,0-0.5,0.1-0.9c0.1-0.5,0.2-0.9,0.3-1.4c0.1-0.3,0.3-0.5,0.5-0.7
		c0.2-0.3,0.6-0.4,0.9-0.3c0.3,0.2,0.4,0.6,0.3,0.9c0,0.3-0.1,0.6-0.3,0.8c-0.2,0.4-0.5,0.8-0.8,1.2c-0.2,0.2-0.5,0.4-0.7,0.6
		C567.7,317.6,567.6,317.6,567.5,317.7c0,0,0.4-0.3,0.9-0.9c0.3-0.3,0.6-0.7,0.7-1.1c0.1-0.2,0.2-0.5,0.2-0.8c0-0.3,0-0.6-0.2-0.7
		c-0.2-0.1-0.5,0-0.6,0.2c-0.2,0.2-0.3,0.4-0.4,0.7c-0.2,0.4-0.3,0.9-0.4,1.3C567.7,316.8,567.6,317.2,567.5,317.7z"/>
	<path class="st14" d="M558.7,318.8l-0.8-3.3c0,0,2.8,0.5,3.5,2.6c0.4,1.1,0.6,2.3,0.5,3.5l6,6.5c0,0,1.5-3,4.2-2.2
		c0,0,2.1,4.7,2.1,5.9c-0.1,1.2-1.4,1-1.9,0.8c-2-1.1-3.8-2.6-5.4-4.2C563.8,325,560.3,320.8,558.7,318.8z"/>
	<path class="st7" d="M501,315.4v-9.2l17.2-0.2l0.2,13.5l-1.1,0.1c-4.8,0.3-24.2,1.3-27.4,0.4C486.4,318.9,501,315.4,501,315.4z"/>
	<g class="st11">
		<path d="M512.2,319.4c0.2-1.5,1-2.8,2.2-3.7c1.1-0.9,2.6-1.4,4-1.3l0.1,4.8L512.2,319.4z"/>
	</g>
	<path class="st14" d="M493.9,317.4c0,0-5.1,1.5-4.5,2.4s20.3,0.6,29-0.3v-0.4l-22.9,0.5C495.5,319.5,494.9,317.4,493.9,317.4z"/>
	<path class="st4" d="M518.7,319h-0.3l-0.8,0.1l-3.1,0.2c-2.7,0.1-6.3,0.3-10.3,0.3s-7.7,0-10.3,0l-3.1-0.1h-0.8h-0.3
		c0.1,0,0.2,0,0.3,0h0.9h3.1c2.6,0,6.3,0,10.3,0s7.7-0.2,10.3-0.3l3.1-0.1h0.8L518.7,319z"/>
	<path class="st4" d="M495.5,319.8c-0.1-0.5-0.3-1-0.6-1.5c-0.3-0.4-0.7-0.8-1.1-1.2c0.5,0.2,1,0.6,1.3,1.1
		C495.4,318.7,495.5,319.2,495.5,319.8z"/>
	<path class="st4" d="M500.5,317.2c0,0-0.3-0.3-0.5-0.6s-0.4-0.7-0.4-0.8s0.3,0.3,0.5,0.6S500.6,317.1,500.5,317.2z"/>
	<path class="st4" d="M501.9,316.4c0,0-0.3-0.1-0.6-0.4s-0.5-0.5-0.5-0.6s0.3,0.1,0.6,0.4S501.9,316.4,501.9,316.4z"/>
	<path class="st4" d="M502.8,314.8c-0.3,0.1-0.6,0.1-0.9,0.1c-0.3,0-0.6,0-0.9-0.1c0.3-0.1,0.6-0.2,0.9-0.1
		C502.2,314.7,502.5,314.7,502.8,314.8z"/>
	<path class="st4" d="M503,313.6c-0.3,0.2-0.6,0.3-1,0.3c-0.3,0.1-0.7,0-1-0.1c0.3-0.1,0.7-0.1,1-0.1
		C502.4,313.7,502.7,313.6,503,313.6z"/>
	<path class="st4" d="M499.9,315.7c-0.4,0.1-0.7,0.1-1.1,0c-0.4,0-0.8-0.1-1.2-0.3c-0.2-0.1-0.5-0.2-0.7-0.3
		c-0.1-0.1-0.2-0.2-0.3-0.3c0-0.2,0-0.3,0.2-0.5c0.9-0.5,1.9-0.2,2.5,0.6c0.2,0.2,0.3,0.5,0.4,0.7c0,0.1,0,0.2,0,0.3
		c-0.1-0.3-0.3-0.7-0.5-0.9c-0.3-0.3-0.6-0.5-1-0.6c-0.4-0.1-0.9-0.1-1.3,0.1c-0.2,0.1-0.1,0.3,0.1,0.5c0.2,0.1,0.4,0.2,0.6,0.3
		c0.4,0.1,0.8,0.2,1.1,0.3C499.5,315.6,499.9,315.6,499.9,315.7z"/>
	<path class="st4" d="M499.6,315.7c-0.1-0.2-0.2-0.5-0.1-0.8c0-0.3,0.1-0.6,0.3-0.8c0.2-0.3,0.5-0.5,0.9-0.6c0.2,0,0.4,0.3,0.3,0.5
		c0,0.2-0.1,0.3-0.2,0.5c-0.1,0.2-0.3,0.5-0.5,0.7C500.1,315.5,499.9,315.6,499.6,315.7c0.1,0,0.3-0.2,0.6-0.6
		c0.2-0.2,0.3-0.4,0.5-0.7c0.2-0.2,0.3-0.7,0-0.7s-0.6,0.3-0.7,0.5c-0.2,0.2-0.3,0.5-0.3,0.7C499.6,315.2,499.6,315.5,499.6,315.7z"
		/>
	<path class="st4" d="M518.2,314.3c-0.4,0-0.8,0-1.3,0.1c-2.1,0.3-3.8,1.7-4.5,3.6c-0.3,0.7-0.3,1.2-0.3,1.2c0-0.1,0-0.2,0-0.3
		c0-0.3,0.1-0.6,0.2-0.9c0.6-2.1,2.4-3.6,4.6-3.8c0.3,0,0.6,0,1,0C518.1,314.3,518.2,314.3,518.2,314.3z"/>
	<path class="st4" d="M516.4,307.2c0.2,2.4,0.3,4.7,0.2,7.1C516.3,311.9,516.3,309.6,516.4,307.2z"/>
	<path class="st4" d="M510,317.7c-0.8,0.2-1.7,0.3-2.5,0.3c-0.8,0.1-1.7,0-2.5-0.2c0-0.1,1.1,0,2.5,0S510,317.7,510,317.7z"/>
	<path class="st4" d="M513.4,317.7c0,0-0.1,0.2-0.2,0.5s-0.2,0.5-0.2,0.5c-0.1,0-0.1-0.3,0-0.6C513,317.8,513.3,317.6,513.4,317.7z"
		/>
	<path class="st4" d="M514.6,316.1c0,0-0.1,0.2-0.3,0.4c-0.2,0.2-0.3,0.3-0.4,0.3s0.1-0.2,0.2-0.4
		C514.4,316.2,514.6,316,514.6,316.1z"/>
	<path class="st4" d="M516.4,315.3c0,0.1-0.2,0.1-0.5,0.1s-0.4,0.2-0.5,0.2c0,0,0.1-0.3,0.4-0.4S516.4,315.3,516.4,315.3z"/>
	<path class="st4" d="M517.7,315c0,0-0.1,0.1-0.2,0.2c-0.1,0.1-0.3,0.1-0.3,0c0-0.1,0.1-0.1,0.2-0.2
		C517.6,314.9,517.7,314.9,517.7,315z"/>
	<polyline class="st4" points="489.3,132.8 497.3,311.4 524.2,312 519.7,162.4 549.9,313.1 575.4,313.1 541.3,132.8 	"/>
	<polygon class="st5" points="548.6,310.7 549.2,313.4 575.4,313.7 575,309.6 	"/>
	<path class="st5" d="M569,310.6c0.1,0,0.3,0.3,0.4,0.7c0.1,0.4,0,0.8-0.1,0.8s-0.3-0.3-0.4-0.7C568.8,310.9,568.8,310.6,569,310.6z
		"/>
	<path class="st5" d="M568,304.7c0.2,0,0.4,0.6,0.5,1.4s0.1,1.5,0,1.5s-0.4-0.6-0.5-1.4S567.8,304.7,568,304.7z"/>
	<path class="st5" d="M567,298.9c0.1,0,0.4,0.6,0.5,1.4s0.1,1.5,0,1.5s-0.4-0.6-0.5-1.4S566.9,298.9,567,298.9z"/>
	<path class="st5" d="M566,293c0.1,0,0.4,0.6,0.5,1.4s0.1,1.5,0,1.5s-0.4-0.6-0.5-1.4S565.9,293,566,293z"/>
	<path class="st5" d="M565,287.2c0.1,0,0.4,0.6,0.5,1.4s0.1,1.5,0,1.5s-0.4-0.6-0.5-1.4S564.9,287.2,565,287.2z"/>
	<path class="st5" d="M564,281.3c0.1,0,0.4,0.6,0.5,1.4s0.1,1.5,0,1.5s-0.4-0.6-0.5-1.4S563.9,281.3,564,281.3z"/>
	<path class="st5" d="M563.1,275.4c0.1,0,0.4,0.6,0.5,1.4s0.1,1.5,0,1.5s-0.4-0.6-0.5-1.4S562.9,275.5,563.1,275.4z"/>
	<path class="st5" d="M562.1,269.6c0.1,0,0.4,0.6,0.5,1.4s0.1,1.5,0,1.5s-0.4-0.6-0.5-1.4S561.9,269.6,562.1,269.6z"/>
	<path class="st5" d="M561.1,263.8c0.1,0,0.4,0.6,0.5,1.4s0.1,1.5,0,1.5s-0.4-0.6-0.5-1.4S560.9,263.8,561.1,263.8z"/>
	<path class="st5" d="M560.1,257.9c0.2,0,0.4,0.6,0.5,1.4s0.1,1.5,0,1.5s-0.4-0.6-0.5-1.4S559.9,257.9,560.1,257.9z"/>
	<path class="st5" d="M559.1,252.1c0.1,0,0.4,0.6,0.5,1.4s0.1,1.5,0,1.5s-0.4-0.6-0.5-1.4S558.9,252.1,559.1,252.1z"/>
	<path class="st5" d="M558,246.2c0.1,0,0.4,0.6,0.5,1.4s0.1,1.5,0,1.5s-0.4-0.6-0.5-1.4S557.9,246.2,558,246.2z"/>
	<path class="st5" d="M557,240.4c0.1,0,0.4,0.6,0.5,1.4s0.1,1.5,0,1.5s-0.4-0.6-0.5-1.4S556.9,240.4,557,240.4z"/>
	<path class="st5" d="M556,234.5c0.2,0,0.4,0.6,0.5,1.4s0.1,1.5,0,1.5s-0.4-0.6-0.5-1.4S555.9,234.6,556,234.5z"/>
	<path class="st5" d="M555,228.7c0.1,0,0.4,0.6,0.5,1.4s0.1,1.5,0,1.5s-0.4-0.6-0.5-1.4S554.8,228.7,555,228.7z"/>
	<path class="st5" d="M553.9,222.8c0.1,0,0.4,0.6,0.5,1.4s0.1,1.5,0,1.5s-0.4-0.6-0.5-1.4S553.8,222.9,553.9,222.8z"/>
	<path class="st5" d="M552.9,217c0.1,0,0.4,0.6,0.5,1.4s0.2,1.5,0,1.5s-0.4-0.6-0.5-1.4S552.8,217,552.9,217z"/>
	<path class="st5" d="M551.9,211.2c0.1,0,0.4,0.6,0.5,1.4s0.2,1.5,0,1.5s-0.4-0.6-0.5-1.4S551.7,211.2,551.9,211.2z"/>
	<path class="st5" d="M550.8,205.3c0.1,0,0.4,0.6,0.5,1.4s0.2,1.5,0,1.5s-0.4-0.6-0.5-1.4S550.7,205.3,550.8,205.3z"/>
	<path class="st5" d="M549.7,199.5c0.1,0,0.4,0.6,0.5,1.4s0.2,1.5,0,1.5c-0.2,0-0.4-0.6-0.5-1.4S549.6,199.5,549.7,199.5z"/>
	<path class="st5" d="M548.7,193.6c0.2,0,0.4,0.6,0.5,1.4s0.2,1.5,0,1.5c-0.2,0-0.4-0.6-0.5-1.4S548.5,193.7,548.7,193.6z"/>
	<path class="st5" d="M547.6,187.8c0.1,0,0.4,0.6,0.5,1.4s0.2,1.5,0,1.5s-0.4-0.6-0.5-1.4S547.4,187.8,547.6,187.8z"/>
	<path class="st5" d="M546.5,182c0.2,0,0.4,0.6,0.5,1.4s0.2,1.5,0,1.5c-0.2,0-0.4-0.6-0.5-1.4S546.3,182,546.5,182z"/>
	<path class="st5" d="M545.4,176.2c0.1,0,0.4,0.6,0.5,1.4s0.2,1.5,0,1.5c-0.2,0-0.4-0.6-0.5-1.4S545.2,176.2,545.4,176.2z"/>
	<path class="st5" d="M544.3,170.3c0.1,0,0.4,0.6,0.5,1.4s0.2,1.5,0,1.5c-0.2,0-0.4-0.6-0.5-1.4C544.1,171,544.1,170.4,544.3,170.3z
		"/>
	<path class="st5" d="M543.1,164.5c0.1,0,0.4,0.6,0.5,1.4c0.2,0.8,0.2,1.5,0,1.5c-0.2,0-0.4-0.6-0.5-1.4
		C543,165.2,543,164.5,543.1,164.5z"/>
	<path class="st5" d="M542,158.7c0.1,0,0.4,0.6,0.5,1.4c0.2,0.8,0.2,1.5,0,1.5c-0.2,0-0.4-0.6-0.5-1.4
		C541.8,159.4,541.8,158.7,542,158.7z"/>
	<path class="st5" d="M540.8,152.9c0.1,0,0.4,0.6,0.5,1.4c0.2,0.8,0.2,1.5,0,1.5c-0.2,0-0.4-0.6-0.5-1.4
		C540.7,153.6,540.7,152.9,540.8,152.9z"/>
	<path class="st5" d="M539.6,147c0.1,0,0.4,0.6,0.6,1.4c0.2,0.8,0.2,1.5,0,1.5c-0.2,0-0.4-0.6-0.6-1.4
		C539.5,147.7,539.5,147.1,539.6,147z"/>
	<path class="st5" d="M538.5,141.2c0.1,0,0.4,0.6,0.5,1.4c0.2,0.8,0.2,1.5,0.1,1.5s-0.4-0.6-0.6-1.4
		C538.3,141.9,538.3,141.3,538.5,141.2z"/>
	<path class="st5" d="M537.6,136.8c0.2,0,0.3,0.3,0.4,0.7s0,0.8-0.1,0.8s-0.3-0.3-0.4-0.7S537.4,136.9,537.6,136.8z"/>
	<path class="st5" d="M519.6,310.5c0.1,0,0.3,0.3,0.3,0.7c0,0.4-0.1,0.8-0.2,0.8c-0.1,0-0.3-0.3-0.3-0.7
		C519.4,310.9,519.4,310.5,519.6,310.5z"/>
	<path class="st5" d="M519.3,304.6c0.2,0,0.3,0.7,0.3,1.5s-0.1,1.5-0.2,1.5s-0.3-0.7-0.3-1.5S519.2,304.6,519.3,304.6z"/>
	<path class="st5" d="M519.1,298.6c0.1,0,0.3,0.7,0.3,1.5c0,0.8-0.1,1.5-0.2,1.5s-0.3-0.7-0.3-1.5
		C518.9,299.3,519,298.6,519.1,298.6z"/>
	<path class="st5" d="M519,292.7c0.1,0,0.3,0.7,0.3,1.5c0,0.8-0.1,1.5-0.2,1.5c-0.1,0-0.3-0.7-0.3-1.5
		C518.7,293.4,518.8,292.7,519,292.7z"/>
	<path class="st5" d="M518.8,286.7c0.1,0,0.3,0.7,0.3,1.5c0,0.8-0.1,1.5-0.2,1.5c-0.1,0-0.3-0.7-0.3-1.5
		C518.6,287.4,518.7,286.7,518.8,286.7z"/>
	<path class="st5" d="M518.7,280.8c0.2,0,0.3,0.7,0.3,1.5c0,0.8-0.1,1.5-0.2,1.5c-0.2,0-0.3-0.7-0.3-1.5
		C518.4,281.4,518.5,280.8,518.7,280.8z"/>
	<path class="st5" d="M518.5,274.8c0.2,0,0.3,0.7,0.3,1.5s-0.1,1.5-0.2,1.5s-0.3-0.7-0.3-1.5C518.2,275.5,518.3,274.8,518.5,274.8z"
		/>
	<path class="st5" d="M518.2,268.9c0.2,0,0.3,0.7,0.3,1.5s-0.1,1.5-0.2,1.5s-0.3-0.7-0.3-1.5S518.1,268.9,518.2,268.9z"/>
	<path class="st5" d="M518,262.9c0.2,0,0.3,0.6,0.3,1.5s-0.1,1.5-0.2,1.5s-0.3-0.6-0.3-1.5S517.8,262.9,518,262.9z"/>
	<path class="st5" d="M517.8,256.9c0.2,0,0.3,0.7,0.3,1.5s-0.1,1.5-0.2,1.5s-0.3-0.7-0.3-1.5S517.6,257,517.8,256.9z"/>
	<path class="st5" d="M517.6,251c0.2,0,0.3,0.6,0.3,1.5c0,0.8-0.1,1.5-0.2,1.5c-0.1,0-0.3-0.7-0.3-1.5
		C517.4,251.7,517.5,251,517.6,251z"/>
	<path class="st5" d="M517.4,245c0.1,0,0.3,0.7,0.3,1.5c0,0.8-0.1,1.5-0.2,1.5c-0.1,0-0.3-0.7-0.3-1.5
		C517.2,245.7,517.3,245,517.4,245z"/>
	<path class="st5" d="M517.3,239.1c0.1,0,0.3,0.7,0.3,1.5c0,0.8-0.1,1.5-0.2,1.5c-0.1,0-0.3-0.7-0.3-1.5
		C517.1,239.8,517.2,239.1,517.3,239.1z"/>
	<path class="st5" d="M517.2,233.1c0.1,0,0.3,0.7,0.3,1.5s-0.1,1.5-0.2,1.5c-0.2,0-0.3-0.7-0.3-1.5S517.1,233.1,517.2,233.1z"/>
	<path class="st5" d="M517.1,227.2c0.1,0,0.3,0.7,0.3,1.5s-0.1,1.5-0.2,1.5s-0.3-0.7-0.3-1.5S517,227.2,517.1,227.2z"/>
	<path class="st5" d="M517.1,221.2c0.2,0,0.3,0.7,0.3,1.5s-0.1,1.5-0.3,1.5s-0.3-0.7-0.3-1.5S517,221.2,517.1,221.2z"/>
	<path class="st5" d="M517.1,215.3c0.1,0,0.3,0.7,0.3,1.5s-0.1,1.5-0.3,1.5s-0.3-0.7-0.3-1.5S516.9,215.3,517.1,215.3z"/>
	<path class="st5" d="M517.1,209.3c0.1,0,0.3,0.7,0.3,1.5s-0.1,1.5-0.3,1.5s-0.3-0.7-0.3-1.5S517,209.3,517.1,209.3z"/>
	<path class="st5" d="M517.1,203.3c0.2,0,0.3,0.7,0.3,1.5s-0.1,1.5-0.3,1.5s-0.3-0.7-0.3-1.5S517,203.3,517.1,203.3z"/>
	<path class="st5" d="M517.2,197.4c0.2,0,0.3,0.7,0.2,1.5s-0.1,1.5-0.3,1.5s-0.3-0.7-0.2-1.5S517.1,197.4,517.2,197.4z"/>
	<path class="st5" d="M517.3,191.4c0.1,0,0.3,0.7,0.2,1.5s-0.1,1.5-0.3,1.5c-0.1,0-0.3-0.7-0.2-1.5S517.2,191.4,517.3,191.4z"/>
	<path class="st5" d="M517.5,185.5c0.2,0,0.3,0.7,0.2,1.5s-0.2,1.5-0.3,1.5s-0.2-0.7-0.2-1.5S517.3,185.4,517.5,185.5z"/>
	<path class="st5" d="M517.7,179.5c0.2,0,0.2,0.7,0.2,1.5c0,0.8-0.2,1.5-0.3,1.5s-0.2-0.7-0.2-1.5
		C517.4,180.2,517.5,179.5,517.7,179.5z"/>
	<path class="st5" d="M518,173.6c0.1,0,0.2,0.7,0.2,1.5c-0.1,0.8-0.2,1.5-0.4,1.5c-0.2,0-0.2-0.7-0.2-1.5S517.9,173.6,518,173.6z"/>
	<path class="st5" d="M518.6,167.6c0.2,0,0.2,0.7,0.1,1.5c-0.1,0.8-0.3,1.5-0.4,1.5c-0.1,0-0.2-0.7-0.1-1.5
		C518.3,168.3,518.4,167.6,518.6,167.6z"/>
	<path class="st5" d="M519.1,163.2c0.1,0,0.2,0.4,0.2,0.8c-0.1,0.4-0.2,0.7-0.4,0.7s-0.2-0.4-0.2-0.8
		C518.8,163.5,519,163.2,519.1,163.2z"/>
	<polygon class="st5" points="496.6,312.3 525,312.8 524.8,308 496.6,308.2 	"/>
	<path class="st5" d="M515.2,135.1c0.1,0.4,0.2,0.7,0.2,1.1c0.1,0.7,0.2,1.7,0.3,3c0.2,2.5,0.5,6,0.7,9.9c0.1,1.9,0.2,3.8,0.3,5.5
		c0,1.5,0.2,2.9,0.5,4.3c0.3,0.9,0.9,1.7,1.8,2.1c0.3,0.1,0.7,0.2,1,0.3c-0.1,0-0.2,0-0.3,0c-0.3,0-0.6,0-0.8-0.1
		c-1-0.4-1.7-1.2-2.1-2.2c-0.4-1.4-0.7-2.9-0.7-4.4c-0.1-1.7-0.2-3.5-0.3-5.4c-0.2-3.9-0.4-7.4-0.5-9.9c-0.1-1.3-0.1-2.3-0.1-3
		C515.2,135.8,515.2,135.4,515.2,135.1z"/>
	<path class="st5" d="M518,137.4c0,0.1-0.2,0.2-0.3,0.7c0,0.2,0,0.5,0.2,0.6c0.2,0.2,0.5,0.2,0.7,0.1c0.2-0.1,0.4-0.3,0.4-0.6
		c0-0.2-0.1-0.4-0.3-0.6c-0.3-0.3-0.6-0.2-0.6-0.3s0.3-0.3,0.9,0c0.3,0.2,0.5,0.5,0.5,0.9c0,0.6-0.5,1.2-1.2,1.2
		c-0.3,0-0.6-0.1-0.8-0.4c-0.2-0.3-0.3-0.7-0.2-1C517.6,137.4,518,137.4,518,137.4z"/>
	<path class="st5" d="M543.2,141.7c-0.7,0.5-1.4,0.7-2.2,0.9c-3.9,0.8-8-1-10-4.5c-0.5-0.7-0.7-1.4-0.8-2.2c0.1,0,0.4,0.8,1.2,2
		c2.1,3.2,5.9,4.9,9.6,4.3C542.4,141.9,543.2,141.6,543.2,141.7z"/>
	<path class="st5" d="M498.6,135.1c0.1,0.6,0.1,1.3-0.1,1.9c-0.7,3.2-3.4,5.6-6.7,5.9c-0.6,0.1-1.3,0.1-1.9-0.2c0-0.1,0.7,0,1.9-0.2
		c3-0.5,5.5-2.7,6.4-5.6C498.5,135.8,498.6,135,498.6,135.1z"/>
	<path class="st12" d="M482.4,58l-25,6.5l4-29.6l0,0l0.5-1.4L471,32l-1.1-6.8c-0.5-3-3.4-5-6.4-4.4c-0.1,0-0.3,0.1-0.4,0.1l-3,0.8
		c-2.2,0.6-4,2-5,4c-1.7,3.4-3.4,7.1-3.3,6.8l0,0l-13.4,36.4c-2.4,4.8-1.8,10.5,1.5,14.6c4.3,5.6,14.8,1.7,19.7,0.8l32-7.1L482.4,58
		z"/>
	<path class="st12" d="M574.6,116c5.5-6.3,5.5-15.8-0.1-22.1l-26.7-30.3l-7.2,20c0.5,0.3,20.8,22.1,20.8,22.1L544,127.5
		c-2.7,3.4-3.5,7.9-2.1,11.9l3,12.2l14.5-6.5l-1-1.5h-9.6l-0.6-2.3l0,0L574.6,116z"/>
	<path class="st13" d="M565.2,101.8c-0.5,0.9-1.2,1.7-2,2.4c-0.7,0.8-1.4,1.5-2.3,2.1c0.4-0.9,1.1-1.8,1.9-2.4
		C563.5,103,564.3,102.4,565.2,101.8z"/>
	<path class="st7" d="M483.6,139.1l57.7-3.9l-0.7-28.4V86.2l6.4,9.5l17.2-17.9l-19.2-18.4l0,0c-3.2-3.4-7.2-6-11.7-7.6
		c-2.3-0.8-4.8-1.3-7.3-1.4l0,0c-5.7,1.8-11.9,1.8-17.7,0c-5.4,0.5-10.8,1.5-16,3l-22.5,6l7.4,27.5l13.5-4.5
		C490.9,82.4,483.4,133.4,483.6,139.1z"/>
	<polygon class="st7" points="547,95.7 551,94.5 549.6,93 	"/>
	<path class="st4" d="M541.2,87.3c-0.9-0.9-1.7-2-2.3-3.1c-0.8-1-1.4-2.2-1.9-3.4C538.7,82.7,540.1,84.9,541.2,87.3L541.2,87.3z"/>
	<polygon class="st7" points="477.4,87.2 472.9,81.3 475.7,80.7 	"/>
	<g class="st15">
		<path class="st6" d="M549.4,63.9c0,0-0.1,0.1-0.2,0.2l-0.7,0.6c-1,0.7-2,1.3-3.1,1.8c-1.8,0.7-3.6,1.1-5.5,1.2
			c-2.5,0.1-5-0.4-7.3-1.6c-1.4-0.6-2.5-1.6-3.4-2.8c-0.5-0.7-0.7-1.5-0.6-2.3c0.2-0.9,0.9-1.6,1.7-1.8c0.9-0.2,1.8,0,2.5,0.5
			c0.7,0.5,1.3,1.3,1.6,2.1c0.7,1.7,0.6,3.7-0.1,5.4c-0.7,1.8-2,3.3-3.7,4.3c-1.7,1-3.6,1.7-5.6,1.9c-2.1,0.3-4.1,0.1-6.1-0.5
			c-1-0.4-2-0.9-2.8-1.6c-0.8-0.7-1.5-1.6-2-2.5c-1.1-1.9-1.8-3.8-3.1-5.4c-1.3-1.5-3.1-2.5-5.1-2.7c-1.9-0.2-3.8,0.1-5.5,1
			c-1.7,0.8-3.1,2-4.3,3.4c-1.2,1.3-1.7,3-1.4,4.8c0.2,0.8,0.6,1.5,1.3,2c0.6,0.4,1.4,0.6,2.2,0.5c0.7-0.2,1.3-0.7,1.7-1.3
			c0.3-0.7,0.4-1.4,0.4-2.2c-0.1-1.4-0.4-2.8-0.9-4.2c-2.1-5.3-7-8.9-12.7-9.2c-0.8-0.1-1.2,0-1.2-0.1c0.4-0.1,0.8-0.1,1.2-0.1
			c1.2,0,2.4,0.2,3.5,0.5c1.8,0.5,3.5,1.4,5,2.6c2,1.6,3.5,3.6,4.4,6c0.6,1.4,0.9,2.8,1,4.3c0,0.8-0.1,1.6-0.4,2.4
			c-0.4,0.8-1.1,1.4-2,1.6c-0.9,0.2-1.8,0-2.5-0.5c-0.8-0.5-1.3-1.3-1.5-2.2c-0.2-0.9-0.2-1.9,0.1-2.7c0.3-0.9,0.8-1.7,1.4-2.4
			c1.2-1.5,2.8-2.7,4.5-3.5c1.8-0.9,3.8-1.3,5.8-1.1c2.1,0.2,4.1,1.2,5.4,2.9c1.4,1.6,2.1,3.7,3.2,5.5c0.5,0.9,1.1,1.7,1.9,2.4
			c0.8,0.7,1.6,1.2,2.6,1.5c1.9,0.6,3.9,0.8,5.9,0.5c1.9-0.2,3.8-0.9,5.4-1.8c1.6-0.9,2.8-2.4,3.5-4.1c0.7-1.6,0.7-3.4,0.1-5
			c-0.3-0.8-0.8-1.4-1.4-1.9c-0.6-0.5-1.4-0.7-2.2-0.5c-0.7,0.2-1.3,0.7-1.4,1.4c-0.1,0.7,0.1,1.4,0.5,2c0.8,1.2,1.9,2.1,3.2,2.7
			c2.2,1.1,4.7,1.7,7.1,1.6c1.9,0,3.7-0.4,5.5-1.1C546.7,65.7,548.1,64.9,549.4,63.9z"/>
	</g>
	<g class="st15">
		<path class="st6" d="M540.2,92.2h-0.3l-0.8-0.1c-0.7,0-1.7-0.2-3.1-0.2c-1.6-0.1-3.2,0-4.8,0.3c-2.1,0.4-4.1,1.3-5.7,2.7
			c-0.9,0.8-1.6,1.9-2,3c-0.5,1.2-0.3,2.6,0.4,3.7c0.4,0.5,1,0.9,1.6,1.1c0.7,0.2,1.4,0.1,1.9-0.3c0.6-0.4,1.1-1,1.3-1.6
			c0.3-0.7,0.3-1.4,0.2-2.2c-0.3-1.6-1-3-2.1-4.2c-1.1-1.3-2.4-2.3-3.8-3.1c-3.1-1.7-6.7-2.1-10.1-1.3c-3.4,0.9-6.5,2.7-8.8,5.4
			c-1.2,1.2-2.1,2.6-2.5,4.2c-0.2,0.7-0.1,1.5,0.2,2.2c0.4,0.7,0.9,1.1,1.7,1.4c1.4,0.5,3,0.1,4-1.1c0.9-1.1,1.2-2.5,1-3.9
			c-0.2-1.3-0.8-2.5-1.8-3.5c-0.9-0.9-1.9-1.6-3-2.1c-3.3-1.8-7.2-2.3-10.9-1.3c-1.3,0.4-2.5,1.2-3.5,2.1c0.2-0.3,0.5-0.5,0.8-0.8
			c0.8-0.7,1.7-1.2,2.7-1.5c3.7-1.1,7.7-0.7,11.1,1.1c1.2,0.6,2.2,1.3,3.1,2.2c1,1,1.7,2.3,1.9,3.7c0.3,1.5-0.1,3.1-1,4.3
			c-1.1,1.3-2.9,1.7-4.5,1.2c-0.9-0.2-1.6-0.8-2-1.6c-0.4-0.8-0.5-1.7-0.3-2.6c0.5-1.7,1.4-3.2,2.6-4.4c2.4-2.7,5.6-4.6,9.1-5.5
			c3.5-0.9,7.3-0.4,10.5,1.3c1.5,0.8,2.9,1.9,4,3.2c1.1,1.3,1.8,2.8,2.2,4.4c0.1,0.8,0.1,1.7-0.2,2.4c-0.3,0.8-0.8,1.4-1.5,1.9
			c-0.7,0.4-1.5,0.6-2.3,0.3c-0.7-0.2-1.4-0.7-1.8-1.3c-0.8-1.2-1-2.7-0.5-4.1c0.4-1.2,1.2-2.3,2.2-3.1c1.7-1.4,3.7-2.4,5.9-2.7
			c1.6-0.3,3.3-0.3,4.9-0.2c1.3,0.1,2.4,0.2,3.1,0.3l0.8,0.1C540,92.2,540.1,92.2,540.2,92.2z"/>
	</g>
	<g class="st15">
		<path class="st6" d="M541.3,124.8l-0.3,0.1c-0.2,0-0.4,0.1-0.8,0.1c-1,0.1-2,0-3-0.1c-1.6-0.2-3.1-0.7-4.5-1.5
			c-1.9-1-3.5-2.4-4.7-4.1c-0.4-0.5-0.7-1-0.9-1.6c-0.3-0.6-0.3-1.4,0-2c0.2-0.3,0.4-0.6,0.7-0.8c0.3-0.2,0.7-0.2,1.1-0.1
			c0.7,0.3,1.2,0.8,1.5,1.5c0.6,1.4,0.6,2.8,0.3,4.3c-0.4,1.5-1.1,2.8-2.1,4c-2.2,2.5-5.1,4.1-8.4,4.6c-3.5,0.6-7,0-10.1-1.6
			c-0.4-0.2-0.8-0.5-1.1-0.7s-0.7-0.5-1.1-0.8c-0.7-0.6-1.3-1.2-1.8-2c-0.5-0.8-0.6-1.7-0.5-2.6c0.2-1,0.9-1.7,1.8-2
			c0.9-0.2,1.8-0.1,2.6,0.4c0.7,0.4,1.3,1.1,1.7,1.9c0.7,1.5,0.8,3.2,0.1,4.7c-0.7,1.4-1.8,2.5-3.2,3.2c-1.3,0.6-2.7,1-4.2,1
			c-2.5-0.1-5.1-0.6-7.4-1.6c-3.4-1.4-6.5-3.4-9.1-6c-1-0.9-1.8-1.9-2.6-3c0.1,0.1,0.1,0.1,0.2,0.2l0.5,0.6c0.5,0.5,1.1,1.3,2,2.1
			c2.6,2.5,5.7,4.5,9.1,5.8c2.3,1,4.8,1.5,7.2,1.5c1.4,0,2.7-0.3,4-0.9c1.3-0.6,2.4-1.7,3-3c0.6-1.4,0.6-3-0.1-4.3
			c-0.3-0.7-0.9-1.3-1.5-1.6c-0.7-0.4-1.4-0.5-2.2-0.3c-0.7,0.2-1.3,0.8-1.4,1.6c-0.2,0.8,0,1.6,0.4,2.3c0.4,0.7,1,1.3,1.7,1.9
			c0.3,0.3,0.7,0.5,1,0.8s0.7,0.5,1.1,0.7c3,1.6,6.4,2.2,9.8,1.6c3.1-0.5,6-2,8.1-4.4c0.9-1.1,1.6-2.4,2-3.8c0.4-1.3,0.3-2.7-0.2-4
			c-0.2-0.5-0.7-0.9-1.2-1.2c-0.5-0.2-1.1,0.1-1.3,0.6c-0.2,0.5-0.2,1.1,0,1.6c0.2,0.5,0.5,1,0.9,1.5c1.2,1.7,2.8,3,4.6,4
			c1.4,0.7,2.8,1.3,4.4,1.5c1,0.2,1.9,0.2,2.9,0.2l0.8-0.1L541.3,124.8z"/>
	</g>
	<polygon class="st14" points="477.4,87.2 472.9,81.3 475.7,80.7 	"/>
	<polygon class="st16" points="547,95.7 551,94.5 549.6,93 	"/>
</g>
</svg>
