<?xml version="1.0" encoding="utf-8"?>
<!-- Generator: Adobe Illustrator 24.1.1, SVG Export Plug-In . SVG Version: 6.00 Build 0)  -->
<svg version="1.1" id="Layer_1" xmlns="http://www.w3.org/2000/svg" xmlns:xlink="http://www.w3.org/1999/xlink" x="0px" y="0px"
	 viewBox="0 0 377.14 43.4" style="enable-background:new 0 0 377.14 43.4;" xml:space="preserve">
<style type="text/css">
	.st0{fill:none;stroke:#000000;stroke-width:3.4848;stroke-miterlimit:10;}
	.st1{fill:none;stroke:#000000;stroke-width:3.6432;stroke-miterlimit:10;}
	.st2{fill:none;stroke:#000000;stroke-width:3;stroke-linecap:round;stroke-miterlimit:10;}
</style>
<path d="M26.15,4.89H4.91c-0.96,0-1.74-0.78-1.74-1.74v0c0-0.96,0.78-1.74,1.74-1.74h21.24c0.96,0,1.74,0.78,1.74,1.74v0
	C27.89,4.11,27.11,4.89,26.15,4.89z"/>
<path d="M26.15,20.89H4.91c-0.96,0-1.74-0.78-1.74-1.74v0c0-0.96,0.78-1.74,1.74-1.74h21.24c0.96,0,1.74,0.78,1.74,1.74v0
	C27.89,20.11,27.11,20.89,26.15,20.89z"/>
<path d="M26.15,36.89H4.91c-0.96,0-1.74-0.78-1.74-1.74l0,0c0-0.96,0.78-1.74,1.74-1.74h21.24c0.96,0,1.74,0.78,1.74,1.74l0,0
	C27.89,36.11,27.11,36.89,26.15,36.89z"/>
<path d="M26.15,36.36H4.91c-0.96,0-1.74-0.78-1.74-1.74v0c0-0.96,0.78-1.74,1.74-1.74h21.24c0.96,0,1.74,0.78,1.74,1.74v0
	C27.89,35.58,27.11,36.36,26.15,36.36z"/>
<path d="M5.07,36.89H4.91c-0.96,0-1.74-0.78-1.74-1.74v-16c0-0.96,0.78-1.74,1.74-1.74h0.16c0.96,0,1.74,0.78,1.74,1.74v16
	C6.81,36.11,6.03,36.89,5.07,36.89z"/>
<path d="M347.15,4.89h-21.24c-0.96,0-1.74-0.78-1.74-1.74v0c0-0.96,0.78-1.74,1.74-1.74h21.24c0.96,0,1.74,0.78,1.74,1.74v0
	C348.89,4.11,348.11,4.89,347.15,4.89z"/>
<path d="M347.15,20.89h-21.24c-0.96,0-1.74-0.78-1.74-1.74v0c0-0.96,0.78-1.74,1.74-1.74h21.24c0.96,0,1.74,0.78,1.74,1.74v0
	C348.89,20.11,348.11,20.89,347.15,20.89z"/>
<path d="M326.07,36.89h-0.16c-0.96,0-1.74-0.78-1.74-1.74v-16c0-0.96,0.78-1.74,1.74-1.74h0.16c0.96,0,1.74,0.78,1.74,1.74v16
	C327.81,36.11,327.03,36.89,326.07,36.89z"/>
<path d="M60.68,36.93H41.04c-0.96,0-1.74-0.78-1.74-1.74v0c0-0.96,0.78-1.74,1.74-1.74h19.64c0.96,0,1.74,0.78,1.74,1.74v0
	C62.42,36.15,61.64,36.93,60.68,36.93z"/>
<path d="M41.2,36.81h-0.16c-0.96,0-1.74-0.78-1.74-1.74V3.3c0-0.96,0.78-1.74,1.74-1.74h0.16c0.96,0,1.74,0.78,1.74,1.74v31.76
	C42.94,36.03,42.16,36.81,41.2,36.81z"/>
<path d="M168.04,4.93h-25.12c-0.96,0-1.74-0.78-1.74-1.74v0c0-0.96,0.78-1.74,1.74-1.74h25.12c0.96,0,1.74,0.78,1.74,1.74v0
	C169.78,4.15,169,4.93,168.04,4.93z"/>
<path d="M155.58,37.17h-0.16c-0.96,0-1.74-0.78-1.74-1.74V3.67c0-0.96,0.78-1.74,1.74-1.74h0.16c0.96,0,1.74,0.78,1.74,1.74v31.76
	C157.33,36.39,156.55,37.17,155.58,37.17z"/>
<path d="M379.04,4.93h-25.12c-0.96,0-1.74-0.78-1.74-1.74v0c0-0.96,0.78-1.74,1.74-1.74h25.12c0.96,0,1.74,0.78,1.74,1.74v0
	C380.78,4.15,380,4.93,379.04,4.93z"/>
<path d="M366.58,37.17h-0.16c-0.96,0-1.74-0.78-1.74-1.74V3.67c0-0.96,0.78-1.74,1.74-1.74h0.16c0.96,0,1.74,0.78,1.74,1.74v31.76
	C368.33,36.39,367.55,37.17,366.58,37.17z"/>
<path d="M210.31,37.09l-0.15-0.07c-0.87-0.4-1.26-1.44-0.85-2.31l14.68-31.85c0.4-0.87,1.44-1.26,2.31-0.85l0.15,0.07
	c0.87,0.4,1.26,1.44,0.85,2.31l-14.68,31.85C212.22,37.11,211.18,37.49,210.31,37.09z"/>
<path d="M241.01,37.24l0.15-0.07c0.88-0.4,1.26-1.43,0.86-2.31L227.37,2.72c-0.4-0.88-1.43-1.26-2.31-0.86l-0.15,0.07
	c-0.88,0.4-1.26,1.43-0.86,2.31l14.66,32.15C239.1,37.25,240.14,37.64,241.01,37.24z"/>
<path d="M179.19,37.48h-0.16c-0.96,0-1.74-0.78-1.74-1.74V25.08c0-0.96,0.78-1.74,1.74-1.74h0.16c0.96,0,1.74,0.78,1.74,1.74v10.66
	C180.94,36.7,180.16,37.48,179.19,37.48z"/>
<path d="M204,36.96l-0.13,0.1c-0.75,0.6-1.85,0.49-2.45-0.26l-8.88-10.99c-0.6-0.75-0.49-1.85,0.26-2.45l0.13-0.1
	c0.75-0.6,1.85-0.49,2.45,0.26l8.88,10.99C204.87,35.26,204.75,36.36,204,36.96z"/>
<rect x="184.06" y="15.42" transform="matrix(8.341044e-10 -1 1 8.341044e-10 161.8711 209.886)" width="3.65" height="17.18"/>
<path d="M191.78,1.61v3.65h-14.02c-1.01,0-1.82-0.82-1.82-1.82v0c0-1.01,0.82-1.82,1.82-1.82H191.78z"/>
<path d="M92.08,4.93H70.84c-0.96,0-1.74-0.78-1.74-1.74v0c0-0.96,0.78-1.74,1.74-1.74h21.24c0.96,0,1.74,0.78,1.74,1.74v0
	C93.82,4.15,93.04,4.93,92.08,4.93z"/>
<path d="M92.08,20.93H70.84c-0.96,0-1.74-0.78-1.74-1.74v0c0-0.96,0.78-1.74,1.74-1.74h21.24c0.96,0,1.74,0.78,1.74,1.74v0
	C93.82,20.15,93.04,20.93,92.08,20.93z"/>
<path d="M92.08,36.93H70.84c-0.96,0-1.74-0.78-1.74-1.74v0c0-0.96,0.78-1.74,1.74-1.74h21.24c0.96,0,1.74,0.78,1.74,1.74v0
	C93.82,36.15,93.04,36.93,92.08,36.93z"/>
<path d="M92.08,36.4H70.84c-0.96,0-1.74-0.78-1.74-1.74v0c0-0.96,0.78-1.74,1.74-1.74h21.24c0.96,0,1.74,0.78,1.74,1.74v0
	C93.82,35.62,93.04,36.4,92.08,36.4z"/>
<path d="M71,36.93h-0.16c-0.96,0-1.74-0.78-1.74-1.74v-16c0-0.96,0.78-1.74,1.74-1.74H71c0.96,0,1.74,0.78,1.74,1.74v16
	C72.75,36.15,71.97,36.93,71,36.93z"/>
<path d="M119.53,43.4h-0.16c-0.96,0-1.74-0.78-1.74-1.74v-15c0-0.96,0.78-1.74,1.74-1.74h0.16c0.96,0,1.74,0.78,1.74,1.74v15
	C121.27,42.62,120.49,43.4,119.53,43.4z"/>
<circle class="st0" cx="120.02" cy="19.15" r="16.04"/>
<ellipse class="st0" cx="297.08" cy="19.35" rx="17.1" ry="16.24"/>
<path class="st1" d="M191.74,3.44c5.68,0,10.29,4.61,10.29,10.29s-4.61,10.29-10.29,10.29"/>
<g>
	<path class="st2" d="M260.1,19.4c-6.6,0-10.68-3.48-10.68-7.84s4.3-8.46,10.16-8.46c4.01,0,7.93,0.78,9.74,3.21"/>
	<path class="st2" d="M259.57,19.4c8.07,0,10.98,3.29,10.98,7.81s-4.62,8.34-10.3,8.34c-4.72,0-9.62-1.92-10.83-5.37"/>
</g>
</svg>
